<svg width="96" height="15" viewBox="0 0 96 15" fill="none" xmlns="http://www.w3.org/2000/svg">
<g id="Contact us">
<path id="Vector" d="M93.171 11.5959C93.171 11.3925 93.1119 11.2087 92.9938 11.0447C92.8757 10.8806 92.6559 10.7297 92.3343 10.5919C92.0193 10.4475 91.5632 10.3162 90.966 10.1981C90.4279 10.08 89.9259 9.93234 89.4599 9.75516C89.0005 9.57141 88.6002 9.35156 88.259 9.09562C87.9243 8.83969 87.6618 8.53781 87.4715 8.19C87.2812 7.83562 87.186 7.43203 87.186 6.97922C87.186 6.53297 87.2812 6.11297 87.4715 5.71922C87.6683 5.32547 87.9473 4.97766 88.3082 4.67578C88.6757 4.36734 89.1219 4.12781 89.6469 3.95719C90.1785 3.78 90.7757 3.69141 91.4385 3.69141C92.3638 3.69141 93.1579 3.83906 93.8207 4.13438C94.4901 4.42969 95.0019 4.83656 95.3563 5.355C95.7173 5.86688 95.8977 6.45094 95.8977 7.10719H93.0627C93.0627 6.83156 93.0037 6.58547 92.8855 6.36891C92.774 6.14578 92.5968 5.97188 92.354 5.84719C92.1177 5.71594 91.8093 5.65031 91.4287 5.65031C91.1137 5.65031 90.8413 5.70609 90.6116 5.81766C90.3819 5.92266 90.2048 6.06703 90.0801 6.25078C89.9619 6.42797 89.9029 6.62484 89.9029 6.84141C89.9029 7.00547 89.9357 7.15313 90.0013 7.28438C90.0735 7.40906 90.1883 7.52391 90.3458 7.62891C90.5033 7.73391 90.7068 7.83234 90.9562 7.92422C91.2121 8.00953 91.5271 8.08828 91.9012 8.16047C92.669 8.31797 93.3548 8.52469 93.9585 8.78062C94.5623 9.03 95.0413 9.37125 95.3957 9.80437C95.7501 10.2309 95.9273 10.792 95.9273 11.4877C95.9273 11.9602 95.8223 12.3933 95.6123 12.787C95.4023 13.1808 95.1004 13.5253 94.7066 13.8206C94.3129 14.1094 93.8404 14.3358 93.2891 14.4998C92.7444 14.6573 92.1308 14.7361 91.4483 14.7361C90.4574 14.7361 89.6174 14.5589 88.9284 14.2045C88.2459 13.8502 87.7274 13.4006 87.373 12.8559C87.0252 12.3047 86.8513 11.7403 86.8513 11.1628H89.5387C89.5518 11.55 89.6502 11.8617 89.834 12.098C90.0243 12.3342 90.2638 12.5048 90.5526 12.6098C90.8479 12.7148 91.1662 12.7673 91.5074 12.7673C91.8749 12.7673 92.1801 12.7181 92.4229 12.6197C92.6657 12.5147 92.8494 12.3769 92.9741 12.2063C93.1054 12.0291 93.171 11.8256 93.171 11.5959Z" fill="#282828"/>
<path id="Vector_2" d="M82.4119 11.9897V3.88828H85.2469V14.5392H82.5793L82.4119 11.9897ZM82.727 9.80437L83.5637 9.78468C83.5637 10.4934 83.4816 11.153 83.3176 11.7633C83.1535 12.367 82.9074 12.892 82.5793 13.3383C82.2512 13.778 81.8377 14.1225 81.339 14.3719C80.8402 14.6147 80.2529 14.7361 79.577 14.7361C79.0585 14.7361 78.5795 14.6639 78.1398 14.5195C77.7066 14.3686 77.3326 14.1356 77.0176 13.8206C76.7091 13.4991 76.4663 13.0889 76.2891 12.5901C76.1185 12.0848 76.0332 11.4778 76.0332 10.7691V3.88828H78.8682V10.7887C78.8682 11.1037 78.9043 11.3695 78.9765 11.5861C79.0552 11.8026 79.1635 11.9798 79.3013 12.1176C79.4391 12.2555 79.5999 12.3539 79.7837 12.413C79.974 12.472 80.184 12.5016 80.4137 12.5016C80.9977 12.5016 81.4571 12.3834 81.7918 12.1472C82.133 11.9109 82.3726 11.5894 82.5104 11.1825C82.6548 10.7691 82.727 10.3097 82.727 9.80437Z" fill="#282828"/>
<path id="Vector_3" d="M69.4772 3.88828V5.8964H63.2756V3.88828H69.4772ZM64.8113 1.25999H67.6463V11.3301C67.6463 11.6386 67.6856 11.8748 67.7644 12.0389C67.8497 12.203 67.9744 12.3178 68.1384 12.3834C68.3025 12.4425 68.5092 12.472 68.7586 12.472C68.9358 12.472 69.0933 12.4655 69.2311 12.4523C69.3755 12.4326 69.4969 12.413 69.5953 12.3933L69.6052 14.4801C69.3624 14.5589 69.0999 14.6212 68.8177 14.6672C68.5355 14.7131 68.2238 14.7361 67.8825 14.7361C67.2591 14.7361 66.7144 14.6344 66.2484 14.4309C65.7891 14.2209 65.4347 13.8862 65.1853 13.4269C64.9359 12.9675 64.8113 12.3637 64.8113 11.6156V1.25999Z" fill="#282828"/>
<path id="Vector_4" d="M58.1469 12.5212C58.4947 12.5212 58.8032 12.4556 59.0722 12.3244C59.3413 12.1866 59.5513 11.9962 59.7022 11.7534C59.8597 11.5041 59.9418 11.212 59.9483 10.8773H62.616C62.6094 11.6255 62.4093 12.2916 62.0155 12.8756C61.6218 13.4531 61.0935 13.9092 60.4307 14.2439C59.7678 14.572 59.0263 14.7361 58.206 14.7361C57.3791 14.7361 56.6572 14.5983 56.0404 14.3227C55.43 14.047 54.9214 13.6664 54.5146 13.1808C54.1077 12.6886 53.8025 12.1177 53.5991 11.468C53.3957 10.8117 53.2939 10.1095 53.2939 9.36141V9.07594C53.2939 8.32125 53.3957 7.61906 53.5991 6.96937C53.8025 6.31312 54.1077 5.74219 54.5146 5.25656C54.9214 4.76437 55.43 4.38047 56.0404 4.10484C56.6507 3.82922 57.366 3.69141 58.1863 3.69141C59.0591 3.69141 59.8236 3.85875 60.4799 4.19344C61.1427 4.52813 61.6611 5.00719 62.0352 5.63062C62.4158 6.2475 62.6094 6.97922 62.616 7.82578H59.9483C59.9418 7.47141 59.8663 7.14984 59.7219 6.86109C59.5841 6.57234 59.3807 6.34266 59.1116 6.17203C58.8491 5.99484 58.5243 5.90625 58.1371 5.90625C57.7236 5.90625 57.3857 5.99484 57.1232 6.17203C56.8607 6.34266 56.6572 6.57891 56.5129 6.88078C56.3685 7.17609 56.2668 7.51406 56.2077 7.89469C56.1552 8.26875 56.1289 8.6625 56.1289 9.07594V9.36141C56.1289 9.77484 56.1552 10.1719 56.2077 10.5525C56.2602 10.9331 56.3586 11.2711 56.503 11.5664C56.6539 11.8617 56.8607 12.0947 57.1232 12.2653C57.3857 12.4359 57.7269 12.5212 58.1469 12.5212Z" fill="#282828"/>
<path id="Vector_5" d="M48.7069 12.1373V7.39266C48.7069 7.05141 48.6512 6.75937 48.5396 6.51656C48.428 6.26719 48.2541 6.07359 48.0179 5.93578C47.7882 5.79797 47.4896 5.72906 47.1221 5.72906C46.8071 5.72906 46.5347 5.78484 46.3051 5.89641C46.0754 6.00141 45.8982 6.15562 45.7735 6.35906C45.6488 6.55594 45.5865 6.78891 45.5865 7.05797H42.7515C42.7515 6.60516 42.8565 6.17531 43.0665 5.76844C43.2765 5.36156 43.5816 5.00391 43.9819 4.69547C44.3822 4.38047 44.858 4.13438 45.4093 3.95719C45.9671 3.78 46.5905 3.69141 47.2796 3.69141C48.1065 3.69141 48.8415 3.82922 49.4846 4.10484C50.1277 4.38047 50.633 4.79391 51.0005 5.34516C51.3746 5.89641 51.5616 6.58547 51.5616 7.41234V11.97C51.5616 12.5541 51.5977 13.0331 51.6699 13.4072C51.7421 13.7747 51.8471 14.0962 51.9849 14.3719V14.5392H49.1204C48.9826 14.2505 48.8776 13.8895 48.8054 13.4564C48.7397 13.0167 48.7069 12.577 48.7069 12.1373ZM49.081 8.05219L49.1007 9.65672H47.5158C47.1418 9.65672 46.8169 9.69937 46.5413 9.78469C46.2657 9.87 46.0393 9.99141 45.8621 10.1489C45.6849 10.2998 45.5537 10.477 45.4683 10.6805C45.3896 10.8839 45.3502 11.107 45.3502 11.3498C45.3502 11.5927 45.406 11.8125 45.5176 12.0094C45.6291 12.1997 45.7899 12.3506 45.9999 12.4622C46.2099 12.5672 46.456 12.6197 46.7382 12.6197C47.1647 12.6197 47.5355 12.5344 47.8505 12.3637C48.1655 12.1931 48.4083 11.9831 48.579 11.7338C48.7562 11.4844 48.848 11.2481 48.8546 11.025L49.6027 12.2259C49.4977 12.495 49.3533 12.7739 49.1696 13.0627C48.9924 13.3514 48.766 13.6237 48.4904 13.8797C48.2147 14.1291 47.8833 14.3358 47.4962 14.4998C47.109 14.6573 46.6496 14.7361 46.118 14.7361C45.4421 14.7361 44.8285 14.6016 44.2772 14.3325C43.7326 14.0569 43.2994 13.6795 42.9779 13.2005C42.6629 12.7148 42.5054 12.1636 42.5054 11.5467C42.5054 10.9889 42.6104 10.4934 42.8204 10.0603C43.0304 9.62719 43.3388 9.26297 43.7457 8.96766C44.1591 8.66578 44.6743 8.43937 45.2911 8.28844C45.908 8.13094 46.6233 8.05219 47.4371 8.05219H49.081Z" fill="#282828"/>
<path id="Vector_6" d="M41.3437 3.88828V5.8964H35.1421V3.88828H41.3437ZM36.6777 1.25999H39.5127V11.3301C39.5127 11.6386 39.5521 11.8748 39.6308 12.0389C39.7162 12.203 39.8408 12.3178 40.0049 12.3834C40.169 12.4425 40.3757 12.472 40.6251 12.472C40.8022 12.472 40.9597 12.4655 41.0976 12.4523C41.2419 12.4326 41.3633 12.413 41.4618 12.3933L41.4716 14.4801C41.2288 14.5589 40.9663 14.6212 40.6841 14.6672C40.4019 14.7131 40.0902 14.7361 39.749 14.7361C39.1255 14.7361 38.5808 14.6344 38.1149 14.4309C37.6555 14.2209 37.3012 13.8862 37.0518 13.4269C36.8024 12.9675 36.6777 12.3637 36.6777 11.6156V1.25999Z" fill="#282828"/>
<path id="Vector_7" d="M27.6018 6.16219V14.5392H24.7668V3.88828H27.4247L27.6018 6.16219ZM27.1884 8.83969H26.4206C26.4206 8.05219 26.5223 7.34344 26.7258 6.71344C26.9292 6.07687 27.2147 5.53547 27.5822 5.08922C27.9497 4.63641 28.3861 4.29187 28.8914 4.05562C29.4033 3.81281 29.9742 3.69141 30.6042 3.69141C31.1029 3.69141 31.559 3.76359 31.9725 3.90797C32.3859 4.05234 32.7403 4.28203 33.0356 4.59703C33.3375 4.91203 33.5672 5.32875 33.7247 5.84719C33.8887 6.36563 33.9707 6.99891 33.9707 7.74703V14.5392H31.1161V7.73719C31.1161 7.26469 31.0504 6.89719 30.9192 6.63469C30.7879 6.37219 30.5943 6.18844 30.3384 6.08344C30.089 5.97188 29.7806 5.91609 29.4131 5.91609C29.0325 5.91609 28.7011 5.99156 28.4189 6.1425C28.1433 6.29344 27.9136 6.50344 27.7298 6.7725C27.5526 7.035 27.4181 7.34344 27.3262 7.69781C27.2343 8.05219 27.1884 8.43281 27.1884 8.83969Z" fill="#282828"/>
<path id="Vector_8" d="M12.9937 9.32203V9.11531C12.9937 8.33438 13.1052 7.61578 13.3283 6.95953C13.5515 6.29672 13.8763 5.7225 14.3029 5.23688C14.7294 4.75125 15.2544 4.37391 15.8779 4.10484C16.5013 3.82922 17.2166 3.69141 18.0238 3.69141C18.831 3.69141 19.5496 3.82922 20.1796 4.10484C20.8096 4.37391 21.3379 4.75125 21.7644 5.23688C22.1976 5.7225 22.5257 6.29672 22.7488 6.95953C22.9719 7.61578 23.0835 8.33438 23.0835 9.11531V9.32203C23.0835 10.0964 22.9719 10.815 22.7488 11.4778C22.5257 12.1341 22.1976 12.7083 21.7644 13.2005C21.3379 13.6861 20.8129 14.0634 20.1894 14.3325C19.566 14.6016 18.8507 14.7361 18.0435 14.7361C17.2363 14.7361 16.5177 14.6016 15.8877 14.3325C15.2643 14.0634 14.736 13.6861 14.3029 13.2005C13.8763 12.7083 13.5515 12.1341 13.3283 11.4778C13.1052 10.815 12.9937 10.0964 12.9937 9.32203ZM15.8287 9.11531V9.32203C15.8287 9.76828 15.868 10.185 15.9468 10.5722C16.0255 10.9594 16.1502 11.3006 16.3208 11.5959C16.498 11.8847 16.7277 12.1111 17.0099 12.2752C17.2921 12.4392 17.6366 12.5212 18.0435 12.5212C18.4372 12.5212 18.7752 12.4392 19.0574 12.2752C19.3396 12.1111 19.566 11.8847 19.7366 11.5959C19.9072 11.3006 20.0319 10.9594 20.1107 10.5722C20.196 10.185 20.2387 9.76828 20.2387 9.32203V9.11531C20.2387 8.68219 20.196 8.27531 20.1107 7.89469C20.0319 7.5075 19.904 7.16625 19.7268 6.87094C19.5562 6.56906 19.3297 6.33281 19.0476 6.16219C18.7654 5.99156 18.4241 5.90625 18.0238 5.90625C17.6235 5.90625 17.2822 5.99156 17.0001 6.16219C16.7244 6.33281 16.498 6.56906 16.3208 6.87094C16.1502 7.16625 16.0255 7.5075 15.9468 7.89469C15.868 8.27531 15.8287 8.68219 15.8287 9.11531Z" fill="#282828"/>
<path id="Vector_9" d="M8.74125 9.78469H11.6845C11.6255 10.7494 11.3597 11.6058 10.8872 12.3539C10.4212 13.102 9.76828 13.6861 8.92828 14.1061C8.09484 14.5261 7.09078 14.7361 5.91609 14.7361C4.99734 14.7361 4.17375 14.5786 3.44531 14.2636C2.71687 13.942 2.09344 13.4827 1.575 12.8855C1.06312 12.2883 0.672656 11.5664 0.403594 10.7198C0.134531 9.87328 0 8.925 0 7.875V6.88078C0 5.83078 0.137813 4.8825 0.413437 4.03594C0.695625 3.18281 1.09594 2.45766 1.61437 1.86047C2.13937 1.26328 2.76609 0.803906 3.49453 0.482344C4.22297 0.160781 5.03672 0 5.93578 0C7.13016 0 8.1375 0.216563 8.95781 0.649688C9.78469 1.08281 10.4245 1.68 10.8773 2.44125C11.3367 3.2025 11.6123 4.06875 11.7042 5.04H8.75109C8.71828 4.4625 8.60344 3.97359 8.40656 3.57328C8.20969 3.16641 7.91109 2.86125 7.51078 2.65781C7.11703 2.44781 6.59203 2.34281 5.93578 2.34281C5.44359 2.34281 5.01375 2.43469 4.64625 2.61844C4.27875 2.80219 3.97031 3.08109 3.72094 3.45516C3.47156 3.82922 3.28453 4.30172 3.15984 4.87266C3.04172 5.43703 2.98266 6.09984 2.98266 6.86109V7.875C2.98266 8.61656 3.03844 9.26953 3.15 9.83391C3.26156 10.3917 3.43219 10.8642 3.66187 11.2514C3.89812 11.632 4.2 11.9208 4.5675 12.1177C4.94156 12.308 5.39109 12.4031 5.91609 12.4031C6.53297 12.4031 7.04156 12.3047 7.44187 12.1078C7.84219 11.9109 8.14734 11.6189 8.35734 11.2317C8.5739 10.8445 8.70187 10.3622 8.74125 9.78469Z" fill="#282828"/>
</g>
</svg>
