<svg width="103" height="17" viewBox="0 0 103 17" fill="none" xmlns="http://www.w3.org/2000/svg">
<g id="Dashboard">
<path id="Vector" d="M98.9614 14.3V0.58905H102.02V16.789H99.2672L98.9614 14.3ZM91.7473 11.2203V10.9988C91.7473 10.1269 91.8458 9.33593 92.0426 8.62577C92.2395 7.90858 92.5278 7.29335 92.9075 6.78007C93.2872 6.26678 93.7547 5.86952 94.3102 5.58827C94.8657 5.30702 95.4985 5.16639 96.2086 5.16639C96.8766 5.16639 97.4602 5.30702 97.9594 5.58827C98.4657 5.86952 98.8946 6.2703 99.2461 6.79061C99.6047 7.30389 99.893 7.9121 100.111 8.61522C100.329 9.31132 100.487 10.0742 100.586 10.9039V11.389C100.487 12.1836 100.329 12.9219 100.111 13.6039C99.893 14.2859 99.6047 14.8836 99.2461 15.3969C98.8946 15.9031 98.4657 16.2969 97.9594 16.5781C97.4532 16.8594 96.8625 17 96.1875 17C95.4774 17 94.8446 16.8558 94.2891 16.5676C93.7407 16.2793 93.2766 15.875 92.8969 15.3547C92.5243 14.8344 92.2395 14.2226 92.0426 13.5195C91.8458 12.8164 91.7473 12.05 91.7473 11.2203ZM94.7848 10.9988V11.2203C94.7848 11.6914 94.82 12.1308 94.8903 12.5387C94.9676 12.9465 95.0907 13.3086 95.2594 13.625C95.4352 13.9344 95.6602 14.1769 95.9344 14.3527C96.2157 14.5215 96.5567 14.6058 96.9575 14.6058C97.4778 14.6058 97.9067 14.4898 98.2442 14.2578C98.5817 14.0187 98.8383 13.6918 99.0141 13.2769C99.1969 12.8621 99.3024 12.384 99.3305 11.8426V10.4609C99.3094 10.018 99.2461 9.62069 99.1407 9.26913C99.0422 8.91053 98.8946 8.60468 98.6977 8.35155C98.5079 8.09842 98.2688 7.90155 97.9805 7.76092C97.6993 7.6203 97.3653 7.54999 96.9786 7.54999C96.5848 7.54999 96.2473 7.64139 95.9661 7.82421C95.6848 7.99999 95.4563 8.24257 95.2805 8.55194C95.1118 8.86131 94.9852 9.22694 94.9008 9.64882C94.8235 10.0637 94.7848 10.5137 94.7848 10.9988Z" fill="black"/>
<path id="Vector_2" d="M87.5602 7.86638V16.789H84.5227V5.37732H87.3809L87.5602 7.86638ZM90.9985 5.30349L90.9457 8.11951C90.7981 8.09841 90.6188 8.08083 90.4079 8.06677C90.204 8.04568 90.0176 8.03513 89.8489 8.03513C89.42 8.03513 89.0473 8.09138 88.7309 8.20388C88.4215 8.30935 88.1614 8.46755 87.9504 8.67849C87.7465 8.88943 87.5918 9.14607 87.4864 9.44841C87.3879 9.75076 87.3317 10.0953 87.3176 10.482L86.7059 10.2922C86.7059 9.55388 86.7797 8.87537 86.9274 8.25662C87.075 7.63084 87.2895 7.08591 87.5707 6.62185C87.859 6.15779 88.2106 5.7992 88.6254 5.54607C89.0403 5.29295 89.5149 5.16638 90.0493 5.16638C90.218 5.16638 90.3903 5.18044 90.5661 5.20857C90.7418 5.22966 90.886 5.2613 90.9985 5.30349Z" fill="black"/>
<path id="Vector_3" d="M79.1226 14.2156V9.13201C79.1226 8.76638 79.0628 8.45349 78.9433 8.19334C78.8237 7.92615 78.6374 7.71873 78.3843 7.57107C78.1382 7.42341 77.8183 7.34959 77.4245 7.34959C77.087 7.34959 76.7952 7.40935 76.5491 7.52888C76.303 7.64138 76.1132 7.80662 75.9796 8.02458C75.846 8.23552 75.7792 8.48513 75.7792 8.77341H72.7417C72.7417 8.28826 72.8542 7.82771 73.0792 7.39177C73.3042 6.95583 73.6312 6.57263 74.0601 6.24216C74.489 5.90466 74.9987 5.64099 75.5894 5.45115C76.187 5.2613 76.855 5.16638 77.5933 5.16638C78.4792 5.16638 79.2667 5.31404 79.9558 5.60935C80.6448 5.90466 81.1862 6.34763 81.58 6.93826C81.9808 7.52888 82.1812 8.26716 82.1812 9.1531V14.0363C82.1812 14.6621 82.2198 15.1754 82.2972 15.5761C82.3745 15.9699 82.487 16.3144 82.6347 16.6097V16.789H79.5655C79.4179 16.4797 79.3054 16.0929 79.228 15.6289C79.1577 15.1578 79.1226 14.6867 79.1226 14.2156ZM79.5233 9.83865L79.5444 11.5578H77.8464C77.4456 11.5578 77.0976 11.6035 76.8022 11.6949C76.5069 11.7863 76.2644 11.9164 76.0745 12.0851C75.8847 12.2469 75.744 12.4367 75.6526 12.6547C75.5683 12.8726 75.5261 13.1117 75.5261 13.3719C75.5261 13.632 75.5858 13.8676 75.7054 14.0785C75.8249 14.2824 75.9972 14.4441 76.2222 14.5636C76.4472 14.6761 76.7108 14.7324 77.0132 14.7324C77.4702 14.7324 77.8675 14.641 78.205 14.4582C78.5425 14.2754 78.8026 14.0504 78.9855 13.7832C79.1753 13.516 79.2737 13.2629 79.2808 13.0238L80.0823 14.3105C79.9698 14.5988 79.8151 14.8976 79.6183 15.207C79.4284 15.5164 79.1858 15.8082 78.8905 16.0824C78.5952 16.3496 78.2401 16.5711 77.8253 16.7469C77.4105 16.9156 76.9183 17 76.3487 17C75.6245 17 74.9671 16.8558 74.3765 16.5676C73.7929 16.2722 73.3288 15.8679 72.9843 15.3547C72.6468 14.8343 72.478 14.2437 72.478 13.5828C72.478 12.9851 72.5905 12.4543 72.8155 11.9902C73.0405 11.5261 73.371 11.1359 73.8069 10.8195C74.2499 10.4961 74.8019 10.2535 75.4628 10.0918C76.1237 9.92302 76.8901 9.83865 77.762 9.83865H79.5233Z" fill="black"/>
<path id="Vector_4" d="M60.2859 11.1992V10.9777C60.2859 10.141 60.4054 9.37107 60.6445 8.66794C60.8835 7.95779 61.2316 7.34255 61.6886 6.82224C62.1457 6.30193 62.7082 5.89763 63.3761 5.60935C64.0441 5.31404 64.8105 5.16638 65.6753 5.16638C66.5402 5.16638 67.3101 5.31404 67.9851 5.60935C68.6601 5.89763 69.2261 6.30193 69.6832 6.82224C70.1472 7.34255 70.4988 7.95779 70.7378 8.66794C70.9769 9.37107 71.0964 10.141 71.0964 10.9777V11.1992C71.0964 12.0289 70.9769 12.7988 70.7378 13.509C70.4988 14.2121 70.1472 14.8273 69.6832 15.3547C69.2261 15.875 68.6636 16.2793 67.9957 16.5676C67.3277 16.8558 66.5613 17 65.6964 17C64.8316 17 64.0617 16.8558 63.3867 16.5676C62.7187 16.2793 62.1527 15.875 61.6886 15.3547C61.2316 14.8273 60.8835 14.2121 60.6445 13.509C60.4054 12.7988 60.2859 12.0289 60.2859 11.1992ZM63.3234 10.9777V11.1992C63.3234 11.6773 63.3656 12.1238 63.4499 12.5386C63.5343 12.9535 63.6679 13.3191 63.8507 13.6355C64.0406 13.9449 64.2867 14.1875 64.589 14.3633C64.8914 14.539 65.2605 14.6269 65.6964 14.6269C66.1183 14.6269 66.4804 14.539 66.7828 14.3633C67.0851 14.1875 67.3277 13.9449 67.5105 13.6355C67.6933 13.3191 67.8269 12.9535 67.9113 12.5386C68.0027 12.1238 68.0484 11.6773 68.0484 11.1992V10.9777C68.0484 10.5136 68.0027 10.0777 67.9113 9.6699C67.8269 9.25505 67.6898 8.88943 67.5 8.57302C67.3171 8.24959 67.0746 7.99646 66.7722 7.81365C66.4699 7.63083 66.1042 7.53943 65.6753 7.53943C65.2464 7.53943 64.8808 7.63083 64.5785 7.81365C64.2832 7.99646 64.0406 8.24959 63.8507 8.57302C63.6679 8.88943 63.5343 9.25505 63.4499 9.6699C63.3656 10.0777 63.3234 10.5136 63.3234 10.9777Z" fill="black"/>
<path id="Vector_5" d="M48.6211 0.58905H51.6586V14.1734L51.3527 16.789H48.6211V0.58905ZM58.8832 10.9672V11.1887C58.8832 12.0394 58.7918 12.8199 58.609 13.5301C58.4332 14.2402 58.159 14.8555 57.7863 15.3758C57.4137 15.889 56.9496 16.2898 56.3941 16.5781C55.8457 16.8594 55.1988 17 54.4535 17C53.7574 17 53.1527 16.8594 52.6395 16.5781C52.1332 16.2969 51.7078 15.8996 51.3633 15.3863C51.0187 14.873 50.741 14.2719 50.5301 13.5828C50.3191 12.8937 50.1609 12.1414 50.0555 11.3258V10.8406C50.1609 10.025 50.3191 9.27264 50.5301 8.58358C50.741 7.89452 51.0187 7.29335 51.3633 6.78007C51.7078 6.26678 52.1332 5.86952 52.6395 5.58827C53.1457 5.30702 53.7434 5.16639 54.4324 5.16639C55.1848 5.16639 55.8387 5.31053 56.3941 5.59882C56.9566 5.88007 57.4207 6.28085 57.7863 6.80116C58.159 7.31444 58.4332 7.92616 58.609 8.63632C58.7918 9.33944 58.8832 10.1164 58.8832 10.9672ZM55.8457 11.1887V10.9672C55.8457 10.5031 55.8105 10.0672 55.7402 9.65936C55.6769 9.24452 55.5645 8.88241 55.4027 8.57303C55.241 8.25663 55.0195 8.00702 54.7383 7.82421C54.4641 7.64139 54.109 7.54999 53.673 7.54999C53.2582 7.54999 52.9066 7.6203 52.6184 7.76092C52.3301 7.90155 52.091 8.09842 51.9012 8.35155C51.7184 8.60468 51.5812 8.90702 51.4898 9.25858C51.3984 9.60311 51.3422 9.9828 51.3211 10.3976V11.7793C51.3422 12.3348 51.4336 12.8269 51.5953 13.2558C51.7641 13.6777 52.0172 14.0117 52.3547 14.2578C52.6992 14.4969 53.1457 14.6164 53.6941 14.6164C54.123 14.6164 54.4781 14.532 54.7594 14.3633C55.0406 14.1945 55.2586 13.9555 55.4133 13.6461C55.575 13.3367 55.6875 12.9746 55.7508 12.5598C55.8141 12.1379 55.8457 11.6808 55.8457 11.1887Z" fill="black"/>
<path id="Vector_6" d="M39.477 0.58905V16.789H36.4395V0.58905H39.477ZM39.0445 10.6824H38.2113C38.2184 9.88788 38.3238 9.15663 38.5277 8.48866C38.7316 7.81366 39.0234 7.23007 39.4031 6.73788C39.7828 6.23866 40.2363 5.85194 40.7637 5.57772C41.298 5.3035 41.8887 5.16639 42.5355 5.16639C43.098 5.16639 43.6078 5.24725 44.0648 5.40897C44.5289 5.56366 44.9262 5.81678 45.2566 6.16835C45.5941 6.51288 45.8543 6.96639 46.0371 7.52889C46.2199 8.09139 46.3113 8.77343 46.3113 9.57499V16.789H43.2527V9.55389C43.2527 9.04764 43.1789 8.65038 43.0312 8.3621C42.8906 8.06678 42.6832 7.85936 42.409 7.73983C42.1418 7.61327 41.8113 7.54999 41.4176 7.54999C40.9816 7.54999 40.609 7.63085 40.2996 7.79257C39.9973 7.95428 39.7547 8.17928 39.5719 8.46757C39.3891 8.74882 39.2555 9.07928 39.1711 9.45897C39.0867 9.83866 39.0445 10.2465 39.0445 10.6824Z" fill="black"/>
<path id="Vector_7" d="M31.588 13.6355C31.588 13.4176 31.5247 13.2207 31.3981 13.0449C31.2716 12.8691 31.036 12.7074 30.6915 12.5597C30.354 12.4051 29.8653 12.2644 29.2255 12.1379C28.6489 12.0113 28.111 11.8531 27.6118 11.6633C27.1196 11.4664 26.6907 11.2308 26.3251 10.9566C25.9665 10.6824 25.6853 10.359 25.4813 9.9863C25.2774 9.60662 25.1755 9.17419 25.1755 8.68904C25.1755 8.21091 25.2774 7.76091 25.4813 7.33904C25.6923 6.91716 25.9911 6.54451 26.3778 6.22107C26.7716 5.8906 27.2497 5.63396 27.8122 5.45115C28.3817 5.2613 29.0216 5.16638 29.7317 5.16638C30.7231 5.16638 31.5739 5.32458 32.2841 5.64099C33.0013 5.9574 33.5497 6.39334 33.9294 6.9488C34.3161 7.49724 34.5095 8.12302 34.5095 8.82615H31.472C31.472 8.53084 31.4087 8.26716 31.2821 8.03513C31.1626 7.79607 30.9728 7.60974 30.7126 7.47615C30.4595 7.33552 30.129 7.26521 29.7212 7.26521C29.3837 7.26521 29.0919 7.32498 28.8458 7.44451C28.5997 7.55701 28.4099 7.71169 28.2763 7.90857C28.1497 8.09841 28.0864 8.30935 28.0864 8.54138C28.0864 8.71716 28.1216 8.87537 28.1919 9.01599C28.2692 9.14959 28.3923 9.27263 28.561 9.38513C28.7298 9.49763 28.9478 9.6031 29.2149 9.70154C29.4892 9.79294 29.8267 9.87732 30.2274 9.95466C31.0501 10.1234 31.7849 10.3449 32.4317 10.6191C33.0786 10.8863 33.5919 11.2519 33.9716 11.716C34.3513 12.173 34.5411 12.7742 34.5411 13.5195C34.5411 14.0258 34.4286 14.4898 34.2036 14.9117C33.9786 15.3336 33.6552 15.7027 33.2333 16.0191C32.8114 16.3285 32.3052 16.5711 31.7146 16.7469C31.131 16.9156 30.4735 17 29.7423 17C28.6806 17 27.7806 16.8101 27.0423 16.4304C26.311 16.0508 25.7556 15.5691 25.3759 14.9855C25.0032 14.3949 24.8169 13.7902 24.8169 13.1715H27.6962C27.7103 13.5863 27.8157 13.9203 28.0126 14.1734C28.2165 14.4265 28.4731 14.6093 28.7825 14.7218C29.0989 14.8343 29.4399 14.8906 29.8056 14.8906C30.1993 14.8906 30.5263 14.8379 30.7864 14.7324C31.0466 14.6199 31.2435 14.4722 31.377 14.2894C31.5177 14.0996 31.588 13.8816 31.588 13.6355Z" fill="black"/>
<path id="Vector_8" d="M20.0181 14.2156V9.13201C20.0181 8.76638 19.9583 8.45349 19.8388 8.19334C19.7192 7.92615 19.5329 7.71873 19.2798 7.57107C19.0337 7.42341 18.7138 7.34959 18.32 7.34959C17.9825 7.34959 17.6907 7.40935 17.4446 7.52888C17.1985 7.64138 17.0087 7.80662 16.8751 8.02458C16.7415 8.23552 16.6747 8.48513 16.6747 8.77341H13.6372C13.6372 8.28826 13.7497 7.82771 13.9747 7.39177C14.1997 6.95583 14.5267 6.57263 14.9556 6.24216C15.3845 5.90466 15.8942 5.64099 16.4849 5.45115C17.0825 5.2613 17.7505 5.16638 18.4888 5.16638C19.3747 5.16638 20.1622 5.31404 20.8513 5.60935C21.5403 5.90466 22.0817 6.34763 22.4755 6.93826C22.8763 7.52888 23.0767 8.26716 23.0767 9.1531V14.0363C23.0767 14.6621 23.1153 15.1754 23.1927 15.5761C23.27 15.9699 23.3825 16.3144 23.5302 16.6097V16.789H20.461C20.3134 16.4797 20.2009 16.0929 20.1235 15.6289C20.0532 15.1578 20.0181 14.6867 20.0181 14.2156ZM20.4188 9.83865L20.4399 11.5578H18.7419C18.3411 11.5578 17.9931 11.6035 17.6978 11.6949C17.4024 11.7863 17.1599 11.9164 16.97 12.0851C16.7802 12.2469 16.6396 12.4367 16.5481 12.6547C16.4638 12.8726 16.4216 13.1117 16.4216 13.3719C16.4216 13.632 16.4813 13.8676 16.6009 14.0785C16.7204 14.2824 16.8927 14.4441 17.1177 14.5636C17.3427 14.6761 17.6063 14.7324 17.9087 14.7324C18.3657 14.7324 18.763 14.641 19.1005 14.4582C19.438 14.2754 19.6981 14.0504 19.881 13.7832C20.0708 13.516 20.1692 13.2629 20.1763 13.0238L20.9778 14.3105C20.8653 14.5988 20.7106 14.8976 20.5138 15.207C20.3239 15.5164 20.0813 15.8082 19.786 16.0824C19.4907 16.3496 19.1356 16.5711 18.7208 16.7469C18.306 16.9156 17.8138 17 17.2442 17C16.52 17 15.8626 16.8558 15.272 16.5676C14.6884 16.2722 14.2243 15.8679 13.8798 15.3547C13.5423 14.8343 13.3735 14.2437 13.3735 13.5828C13.3735 12.9851 13.486 12.4543 13.711 11.9902C13.936 11.5261 14.2665 11.1359 14.7024 10.8195C15.1454 10.4961 15.6974 10.2535 16.3583 10.0918C17.0192 9.92302 17.7856 9.83865 18.6575 9.83865H20.4188Z" fill="black"/>
<path id="Vector_9" d="M4.71445 16.789H1.37109L1.39219 14.3211H4.71445C5.54414 14.3211 6.24375 14.1348 6.81328 13.7621C7.38281 13.3824 7.81172 12.8305 8.1 12.1062C8.39531 11.382 8.54297 10.5066 8.54297 9.48007V8.73124C8.54297 7.94374 8.45859 7.25116 8.28984 6.6535C8.12812 6.05585 7.88555 5.55311 7.56211 5.1453C7.23867 4.73749 6.84141 4.43163 6.37031 4.22772C5.89922 4.01678 5.35781 3.91132 4.74609 3.91132H1.30781V1.4328H4.74609C5.77266 1.4328 6.71133 1.60858 7.56211 1.96014C8.41992 2.30468 9.16172 2.80038 9.7875 3.44725C10.4133 4.09413 10.8949 4.86757 11.2324 5.76757C11.577 6.66053 11.7492 7.65546 11.7492 8.75233V9.48007C11.7492 10.5699 11.577 11.5648 11.2324 12.4648C10.8949 13.3648 10.4133 14.1383 9.7875 14.7851C9.16875 15.425 8.42695 15.9207 7.56211 16.2723C6.7043 16.6168 5.75508 16.789 4.71445 16.789ZM3.16406 1.4328V16.789H0V1.4328H3.16406Z" fill="black"/>
</g>
</svg>
