<svg width="56" height="16" viewBox="0 0 56 16" fill="none" xmlns="http://www.w3.org/2000/svg">
<g id="Home">
<path id="Vector" d="M51.2155 15.7836C50.3296 15.7836 49.5351 15.643 48.8319 15.3617C48.1288 15.0734 47.5312 14.6762 47.039 14.1699C46.5538 13.6637 46.1812 13.0766 45.921 12.4086C45.6608 11.7336 45.5308 11.0164 45.5308 10.257V9.83517C45.5308 8.97032 45.6538 8.17931 45.8999 7.46212C46.146 6.74493 46.4976 6.12267 46.9546 5.59533C47.4187 5.06798 47.9812 4.66368 48.6421 4.38243C49.303 4.09415 50.0483 3.95001 50.878 3.95001C51.6866 3.95001 52.4038 4.08361 53.0296 4.35079C53.6554 4.61798 54.1792 4.99767 54.6011 5.48986C55.03 5.98204 55.3534 6.57267 55.5714 7.26173C55.7894 7.94376 55.8983 8.70314 55.8983 9.53986V10.8055H46.828V8.78048H52.9136V8.54845C52.9136 8.12657 52.8362 7.7504 52.6815 7.41993C52.5339 7.08243 52.3089 6.81525 52.0065 6.61837C51.7042 6.4215 51.3175 6.32306 50.8464 6.32306C50.4456 6.32306 50.1011 6.41095 49.8128 6.58673C49.5245 6.76251 49.289 7.00861 49.1062 7.32501C48.9304 7.64142 48.7968 8.01407 48.7054 8.44298C48.621 8.86486 48.5788 9.32892 48.5788 9.83517V10.257C48.5788 10.7141 48.6421 11.136 48.7687 11.5227C48.9022 11.9094 49.0886 12.2434 49.3276 12.5246C49.5737 12.8059 49.869 13.0238 50.2136 13.1785C50.5651 13.3332 50.9624 13.4106 51.4054 13.4106C51.9538 13.4106 52.4636 13.3051 52.9347 13.0942C53.4128 12.8762 53.8241 12.5492 54.1687 12.1133L55.6452 13.7164C55.4062 14.0609 55.0792 14.3914 54.6644 14.7078C54.2565 15.0242 53.7644 15.2844 53.1878 15.4883C52.6112 15.6852 51.9538 15.7836 51.2155 15.7836Z" fill="black"/>
<path id="Vector_2" d="M30.2907 6.52345V15.5727H27.2427V4.16095H30.1009L30.2907 6.52345ZM29.8688 9.46603H29.0251C29.0251 8.6715 29.12 7.94025 29.3099 7.27228C29.5067 6.59728 29.7915 6.01368 30.1642 5.5215C30.5438 5.02228 31.0114 4.63556 31.5669 4.36134C32.1224 4.08712 32.7657 3.95001 33.497 3.95001C34.0032 3.95001 34.4673 4.02736 34.8892 4.18204C35.311 4.3297 35.6731 4.56525 35.9755 4.88868C36.2849 5.20509 36.5239 5.61993 36.6927 6.13322C36.8614 6.63947 36.9458 7.24767 36.9458 7.95782V15.5727H33.9083V8.29533C33.9083 7.77501 33.838 7.37423 33.6974 7.09298C33.5567 6.81173 33.3563 6.61486 33.0962 6.50236C32.8431 6.38986 32.5372 6.33361 32.1786 6.33361C31.7849 6.33361 31.4403 6.41447 31.145 6.57618C30.8567 6.7379 30.6177 6.9629 30.4278 7.25118C30.238 7.53243 30.0974 7.8629 30.006 8.24259C29.9146 8.62228 29.8688 9.03009 29.8688 9.46603ZM36.661 9.11798L35.5747 9.25509C35.5747 8.50978 35.6661 7.8172 35.8489 7.17736C36.0388 6.53751 36.3165 5.97501 36.6821 5.48986C37.0548 5.0047 37.5153 4.62853 38.0638 4.36134C38.6122 4.08712 39.245 3.95001 39.9622 3.95001C40.5106 3.95001 41.0099 4.03087 41.4599 4.19259C41.9099 4.34728 42.2931 4.59689 42.6095 4.94142C42.9329 5.27892 43.179 5.72189 43.3478 6.27032C43.5235 6.81876 43.6114 7.49025 43.6114 8.28478V15.5727H40.5634V8.28478C40.5634 7.75743 40.4931 7.35665 40.3524 7.08243C40.2188 6.80118 40.022 6.60783 39.7618 6.50236C39.5087 6.38986 39.2063 6.33361 38.8548 6.33361C38.4892 6.33361 38.1692 6.40743 37.895 6.55509C37.6208 6.69572 37.3923 6.89259 37.2095 7.14572C37.0267 7.39884 36.8895 7.69415 36.7981 8.03165C36.7067 8.36212 36.661 8.72423 36.661 9.11798Z" fill="black"/>
<path id="Vector_3" d="M14.5757 9.98282V9.76134C14.5757 8.92462 14.6952 8.1547 14.9343 7.45158C15.1733 6.74142 15.5214 6.12618 15.9784 5.60587C16.4354 5.08556 16.9979 4.68126 17.6659 4.39298C18.3339 4.09767 19.1003 3.95001 19.9651 3.95001C20.83 3.95001 21.5999 4.09767 22.2749 4.39298C22.9499 4.68126 23.5159 5.08556 23.9729 5.60587C24.437 6.12618 24.7886 6.74142 25.0276 7.45158C25.2667 8.1547 25.3862 8.92462 25.3862 9.76134V9.98282C25.3862 10.8125 25.2667 11.5824 25.0276 12.2926C24.7886 12.9957 24.437 13.6109 23.9729 14.1383C23.5159 14.6586 22.9534 15.0629 22.2854 15.3512C21.6175 15.6395 20.8511 15.7836 19.9862 15.7836C19.1214 15.7836 18.3515 15.6395 17.6765 15.3512C17.0085 15.0629 16.4425 14.6586 15.9784 14.1383C15.5214 13.6109 15.1733 12.9957 14.9343 12.2926C14.6952 11.5824 14.5757 10.8125 14.5757 9.98282ZM17.6132 9.76134V9.98282C17.6132 10.4609 17.6554 10.9074 17.7397 11.3223C17.8241 11.7371 17.9577 12.1027 18.1405 12.4192C18.3304 12.7285 18.5765 12.9711 18.8788 13.1469C19.1812 13.3227 19.5503 13.4106 19.9862 13.4106C20.4081 13.4106 20.7702 13.3227 21.0726 13.1469C21.3749 12.9711 21.6175 12.7285 21.8003 12.4192C21.9831 12.1027 22.1167 11.7371 22.2011 11.3223C22.2925 10.9074 22.3382 10.4609 22.3382 9.98282V9.76134C22.3382 9.29728 22.2925 8.86134 22.2011 8.45353C22.1167 8.03868 21.9796 7.67306 21.7897 7.35665C21.6069 7.03322 21.3644 6.78009 21.062 6.59728C20.7597 6.41447 20.394 6.32306 19.9651 6.32306C19.5362 6.32306 19.1706 6.41447 18.8683 6.59728C18.5729 6.78009 18.3304 7.03322 18.1405 7.35665C17.9577 7.67306 17.8241 8.03868 17.7397 8.45353C17.6554 8.86134 17.6132 9.29728 17.6132 9.76134Z" fill="black"/>
<path id="Vector_4" d="M10.241 6.47073V8.9387H2.22539V6.47073H10.241ZM3.16406 0.216431V15.5727H0V0.216431H3.16406ZM12.498 0.216431V15.5727H9.34453V0.216431H12.498Z" fill="black"/>
</g>
</svg>
