<svg width="34" height="34" viewBox="0 0 34 34" fill="none" xmlns="http://www.w3.org/2000/svg">
<g id="iconoir:home-simple">
<path id="Vector (Stroke)" fill-rule="evenodd" clip-rule="evenodd" d="M14.6139 6.93944C14.6139 6.93944 14.6139 6.93943 14.6139 6.93944L7.53057 11.2319C6.85351 11.6422 6.29367 12.2201 5.90513 12.9099C5.5166 13.5997 5.31248 14.378 5.3125 15.1697V24.0833C5.3125 25.3044 5.79758 26.4755 6.66103 27.339C7.52448 28.2024 8.69557 28.6875 9.91667 28.6875H24.0833C25.3044 28.6875 26.4755 28.2024 27.339 27.339C28.2024 26.4755 28.6875 25.3044 28.6875 24.0833V15.1685C28.6875 15.1684 28.6875 15.1686 28.6875 15.1685C28.6873 14.3771 28.4831 13.5989 28.0946 12.9094C27.7061 12.2199 27.1463 11.6421 26.4694 11.2319L19.3861 6.93944C19.3861 6.93943 19.3861 6.93944 19.3861 6.93944C18.6666 6.50342 17.8413 6.27289 17 6.27289C16.1587 6.27289 15.3334 6.50342 14.6139 6.93944ZM13.5126 5.12208C14.5642 4.48482 15.7704 4.14789 17 4.14789C18.2296 4.14789 19.4358 4.48482 20.4874 5.12208L27.5707 9.41458C27.5707 9.41457 27.5707 9.41458 27.5707 9.41458C28.56 10.0141 29.3781 10.8585 29.9459 11.8663C30.5138 12.8741 30.8122 14.0112 30.8125 15.168V24.0833C30.8125 25.868 30.1035 27.5796 28.8416 28.8416C27.5796 30.1035 25.868 30.8125 24.0833 30.8125H9.91667C8.13198 30.8125 6.42039 30.1035 5.15843 28.8416C3.89646 27.5796 3.1875 25.868 3.1875 24.0833V15.1697C3.1875 15.1697 3.1875 15.1697 3.1875 15.1697C3.18748 14.0127 3.4858 12.8751 4.05366 11.867C4.62152 10.8589 5.43972 10.0142 6.42926 9.41458C6.42926 9.41459 6.42927 9.41458 6.42926 9.41458L13.5126 5.12208ZM11.6875 24.0833C11.6875 23.4965 12.1632 23.0208 12.75 23.0208H21.25C21.8368 23.0208 22.3125 23.4965 22.3125 24.0833C22.3125 24.6701 21.8368 25.1458 21.25 25.1458H12.75C12.1632 25.1458 11.6875 24.6701 11.6875 24.0833Z" fill="black"/>
</g>
</svg>
