<svg width="34" height="34" viewBox="0 0 34 34" fill="none" xmlns="http://www.w3.org/2000/svg">
<g id="ion:settings-outline">
<path id="Vector (Stroke)" fill-rule="evenodd" clip-rule="evenodd" d="M14.1386 1.78929L14.1598 1.78906H19.8402L19.8575 1.78921C20.2523 1.79604 20.6331 1.93718 20.9371 2.18938C21.241 2.44157 21.45 2.78977 21.5295 3.17662C21.5338 3.19727 21.5374 3.21805 21.5403 3.23893L21.9861 6.4111C21.9861 6.41089 21.9861 6.41131 21.9861 6.4111C21.9877 6.42182 21.992 6.43262 21.9985 6.44135C22.005 6.45026 22.0137 6.45741 22.0237 6.46216L22.0287 6.46453C22.5734 6.72747 23.0962 7.03369 23.5919 7.38021L23.019 8.19984L23.5902 7.37899C23.5987 7.38491 23.6085 7.38862 23.6188 7.38979C23.6291 7.39095 23.6396 7.38954 23.6492 7.38566L26.63 6.18578L26.6475 6.1789C27.0256 6.03495 27.4423 6.02901 27.8243 6.16216C28.2063 6.2953 28.529 6.55897 28.7357 6.90673L28.7418 6.91714L31.5806 11.8289C31.5809 11.8294 31.5812 11.83 31.5816 11.8305C31.7853 12.1817 31.858 12.5937 31.7868 12.9934C31.7155 13.3938 31.5043 13.7558 31.1911 14.0151C31.1845 14.0206 31.1778 14.026 31.171 14.0313L28.6349 16.0224C28.6348 16.0225 28.635 16.0223 28.6349 16.0224C28.6265 16.0292 28.6195 16.0382 28.6152 16.0482C28.6109 16.0582 28.6091 16.0693 28.6101 16.0802L28.6113 16.0925C28.6345 16.3845 28.6509 16.6886 28.6509 17V17.0059C28.649 17.3175 28.6342 17.6288 28.6066 17.939L31.1686 19.9485C31.1757 19.9541 31.1827 19.9597 31.1897 19.9655C31.5025 20.2248 31.7133 20.5866 31.7846 20.9867C31.8558 21.3864 31.7831 21.7984 31.5795 22.1497C31.5793 22.15 31.5796 22.1494 31.5795 22.1497L28.7342 27.0726C28.5278 27.4207 28.2051 27.6846 27.8231 27.8181C27.4411 27.9515 27.0242 27.9458 26.646 27.802L26.6279 27.7949L23.6499 26.5957C23.6496 26.5956 23.6501 26.5958 23.6499 26.5957C23.6393 26.5917 23.6272 26.59 23.616 26.5913C23.6046 26.5926 23.5936 26.5967 23.5841 26.6033L23.5795 26.6065C23.0828 26.9485 22.5609 27.2524 22.0182 27.5155C22.01 27.5197 22.0028 27.5258 21.9974 27.5333C21.9917 27.541 21.9881 27.5501 21.9868 27.5596L21.5397 30.7412C21.5381 30.7522 21.5364 30.7632 21.5345 30.7741C21.4652 31.1704 21.2605 31.5302 20.9553 31.7923C20.6502 32.0543 20.2635 32.2022 19.8613 32.2107L19.8402 32.2109H14.1598L14.1425 32.2108C13.7476 32.204 13.3668 32.0628 13.0629 31.8106C12.7589 31.5584 12.55 31.2102 12.4704 30.8234C12.4661 30.8027 12.4626 30.782 12.4596 30.7611L12.0139 27.5889C12.0138 27.5887 12.0139 27.5891 12.0139 27.5889C12.0122 27.5782 12.0079 27.5674 12.0015 27.5586C11.9949 27.5497 11.9862 27.5426 11.9762 27.5378L11.9713 27.5355C11.4266 27.2725 10.9038 26.9663 10.408 26.6198L10.9809 25.8002L10.4098 26.621C10.4013 26.6151 10.3914 26.6114 10.3811 26.6102C10.3709 26.6091 10.3605 26.6104 10.3509 26.6143M10.3509 26.6143L7.36995 27.8142L7.35241 27.8211C6.97436 27.9651 6.55765 27.971 6.17567 27.8378C5.79368 27.7047 5.47094 27.441 5.26429 27.0933L5.2581 27.0829L2.41933 22.1711C2.41907 22.1707 2.41881 22.1702 2.41855 22.1698C2.21469 21.8185 2.14191 21.4064 2.21315 21.0066C2.28449 20.6062 2.49559 20.2442 2.80888 19.9849C2.81549 19.9794 2.82217 19.974 2.82891 19.9687L5.3621 17.9799C5.36238 17.9796 5.36266 17.9794 5.36293 17.9792C5.37112 17.9725 5.37757 17.9639 5.38173 17.9541C5.38603 17.944 5.38774 17.933 5.38671 17.9221L5.38595 17.9141C5.36017 17.6155 5.34376 17.3098 5.34376 16.998C5.34376 16.6874 5.35941 16.3847 5.38636 16.0876L6.38227 16.1779L5.38584 16.0936C5.38671 16.0832 5.385 16.0728 5.38086 16.0633C5.37672 16.0538 5.37028 16.0455 5.36213 16.0391L2.82539 14.0464C2.81594 14.039 2.80662 14.0314 2.79745 14.0236C2.48941 13.7631 2.28287 13.4026 2.214 13.0051C2.14519 12.6079 2.21825 12.1992 2.42037 11.8504C2.42022 11.8507 2.42052 11.8502 2.42037 11.8504L5.26578 6.92737C5.47218 6.57933 5.79487 6.31536 6.17688 6.18192C6.55888 6.04848 6.97573 6.05417 7.35395 6.19799L7.37205 6.20508L10.3508 7.40454C10.3613 7.4086 10.3727 7.41004 10.3839 7.40875C10.3954 7.40742 10.4063 7.40327 10.4158 7.39667L10.4204 7.39349C10.9171 7.05144 11.4391 6.74759 11.9817 6.48452L12.4179 7.38437L11.9808 6.48498C11.9894 6.48078 11.9969 6.47452 12.0026 6.46675C12.0082 6.45897 12.0119 6.44993 12.0132 6.44041L12.4603 3.25884C12.4618 3.24782 12.4636 3.23682 12.4655 3.22585C12.5347 2.82963 12.7394 2.46976 13.0446 2.20773C13.3498 1.94571 13.7365 1.7978 14.1386 1.78929M14.4054 3.78906L13.9941 6.71599C13.994 6.7164 13.994 6.71682 13.9939 6.71723C13.9939 6.71728 13.9939 6.71718 13.9939 6.71723C13.9472 7.05147 13.819 7.36925 13.6206 7.6423C13.422 7.91572 13.159 8.13603 12.8551 8.28377L12.8541 8.28423C12.4031 8.50284 11.9694 8.75531 11.5565 9.03946C11.2762 9.23412 10.9521 9.35646 10.6131 9.39557C10.2729 9.43481 9.92837 9.38905 9.61025 9.26239L9.60664 9.26095L6.86511 8.157L4.27362 12.6407L6.59625 14.4653C6.59603 14.4651 6.59648 14.4655 6.59625 14.4653C6.86517 14.6763 7.07809 14.9514 7.21456 15.2649C7.35116 15.5786 7.40757 15.9213 7.37871 16.2622L7.37821 16.2682C7.35601 16.5129 7.34376 16.7548 7.34376 16.998C7.34376 17.239 7.35642 17.4847 7.37828 17.7388C7.4097 18.0797 7.35588 18.4231 7.22164 18.7382C7.08677 19.0546 6.87501 19.3324 6.60557 19.5463L6.60139 19.5496L4.27148 21.3789L6.86282 25.8624L9.60409 24.7589C9.92155 24.6312 10.266 24.5844 10.606 24.6229C10.946 24.6614 11.2711 24.7839 11.552 24.9793L11.5538 24.9805C11.9613 25.2653 12.3909 25.517 12.8385 25.7333C13.1449 25.8796 13.4105 26.0992 13.6118 26.3726C13.8138 26.6468 13.9449 26.9667 13.9934 27.3038L13.9939 27.3072L14.402 30.2109H19.5945L20.0058 27.284L20.006 27.2826C20.0528 26.9484 20.1809 26.6308 20.3793 26.3577C20.578 26.0843 20.8409 25.864 21.1449 25.7162L21.1458 25.7158C21.5969 25.4971 22.0307 25.2446 22.4436 24.9604C22.7239 24.7658 23.0479 24.6435 23.3868 24.6044C23.727 24.5652 24.0716 24.611 24.3897 24.7376L24.3933 24.7391L27.1348 25.843L29.7264 21.3591L26.9321 19.1674C26.6511 18.947 26.509 18.5936 26.5592 18.24C26.6177 17.8282 26.6483 17.413 26.6509 16.9971C26.6508 16.7571 26.6381 16.5113 26.6179 16.2563C26.5877 15.9157 26.6426 15.5728 26.7777 15.2586C26.9137 14.9421 27.1267 14.6646 27.3973 14.4514L27.3986 14.4504L29.7285 12.6211L27.1371 8.13759L24.3959 9.24106C24.0784 9.36878 23.734 9.41558 23.3939 9.3771C23.0539 9.33862 22.7288 9.21614 22.4479 9.0207L22.4461 9.01948C22.0386 8.73463 21.6089 8.48288 21.1612 8.26664C20.8549 8.12027 20.5894 7.90073 20.3881 7.62739C20.1861 7.35316 20.055 7.03327 20.0065 6.69616L20.006 6.69279L19.598 3.78906H14.4054ZM14.4132 12.4315C15.3551 11.8982 16.4388 11.669 17.5159 11.7754L17.5176 11.7756C18.7247 11.8968 19.8527 12.4317 20.7105 13.2895C21.5683 14.1473 22.1031 15.2753 22.2244 16.4824L22.2245 16.484C22.3309 17.5612 22.1018 18.6449 21.5684 19.5868C21.0351 20.5287 20.2237 21.2827 19.2453 21.7457C18.2668 22.2086 17.1692 22.3578 16.1028 22.1728C15.0363 21.9878 14.053 21.4777 13.2877 20.7123C12.5223 19.9469 12.0122 18.9637 11.8272 17.8972C11.6422 16.8307 11.7914 15.7331 12.2543 14.7547C12.7172 13.7763 13.4713 12.9649 14.4132 12.4315ZM17.3187 13.7657C16.6521 13.7 15.9815 13.8419 15.3986 14.1719C14.8155 14.5021 14.3488 15.0044 14.0622 15.6101C13.7756 16.2158 13.6833 16.8952 13.7978 17.5554C13.9123 18.2156 14.2281 18.8243 14.7019 19.2981C15.1757 19.7719 15.7843 20.0877 16.4445 20.2022C17.1048 20.3167 17.7842 20.2244 18.3899 19.9378C18.9956 19.6512 19.4979 19.1844 19.8281 18.6014C20.158 18.0186 20.2999 17.3482 20.2343 16.6817C20.1591 15.9339 19.8277 15.2351 19.2963 14.7037C18.7649 14.1724 18.0663 13.841 17.3187 13.7657Z" fill="black"/>
</g>
</svg>
