<svg width="34" height="34" viewBox="0 0 34 34" fill="none" xmlns="http://www.w3.org/2000/svg">
<g id="radix-icons:dashboard">
<path id="Vector" fill-rule="evenodd" clip-rule="evenodd" d="M6.3466 2.26666H6.23327C5.7142 2.26666 5.26767 2.26666 4.87327 2.3596C4.26271 2.50549 3.70446 2.81757 3.26038 3.26125C2.81629 3.70494 2.50371 4.2629 2.35727 4.87333C2.2666 5.26773 2.2666 5.712 2.2666 6.23333V11.9C2.2666 12.4191 2.2666 12.8656 2.35953 13.26C2.50543 13.8706 2.81751 14.4288 3.26119 14.8729C3.70487 15.317 4.26284 15.6296 4.87327 15.776C5.26767 15.8667 5.71193 15.8667 6.23327 15.8667H11.8999C12.419 15.8667 12.8655 15.8667 13.2599 15.7737C13.8705 15.6278 14.4287 15.3158 14.8728 14.8721C15.3169 14.4284 15.6295 13.8704 15.7759 13.26C15.8666 12.8656 15.8666 12.4213 15.8666 11.9V6.23333C15.8666 5.71426 15.8666 5.26773 15.7737 4.87333C15.6278 4.26277 15.3157 3.70452 14.872 3.26044C14.4283 2.81635 13.8704 2.50377 13.2599 2.35733C12.8655 2.26666 12.4213 2.26666 11.8999 2.26666H6.3466ZM5.4014 4.56506C5.49887 4.5424 5.65073 4.53333 6.3466 4.53333H11.7866C12.4847 4.53333 12.6343 4.54013 12.7318 4.56506C12.9354 4.61375 13.1216 4.71789 13.2696 4.86593C13.4176 5.01397 13.5218 5.20012 13.5705 5.40373C13.5931 5.49893 13.5999 5.64853 13.5999 6.34666V11.7867C13.5999 12.4848 13.5931 12.6344 13.5682 12.7319C13.5195 12.9355 13.4154 13.1216 13.2673 13.2697C13.1193 13.4177 12.9331 13.5218 12.7295 13.5705C12.6366 13.5909 12.487 13.6 11.7866 13.6H6.3466C5.64847 13.6 5.49887 13.5932 5.4014 13.5683C5.19779 13.5196 5.01164 13.4154 4.8636 13.2674C4.71557 13.1194 4.61143 12.9332 4.56273 12.7296C4.54233 12.6367 4.53327 12.4871 4.53327 11.7867V6.34666C4.53327 5.64853 4.54007 5.49893 4.565 5.40146C4.61369 5.19785 4.71783 5.0117 4.86587 4.86366C5.01391 4.71563 5.20005 4.61149 5.40367 4.5628L5.4014 4.56506ZM22.2133 2.26666H22.0999C21.5809 2.26666 21.1343 2.26666 20.7399 2.3596C20.1294 2.50549 19.5711 2.81757 19.127 3.26125C18.683 3.70494 18.3704 4.2629 18.2239 4.87333C18.1333 5.26773 18.1333 5.712 18.1333 6.23333V11.9C18.1333 12.4191 18.1333 12.8656 18.2262 13.26C18.3721 13.8706 18.6842 14.4288 19.1279 14.8729C19.5715 15.317 20.1295 15.6296 20.7399 15.776C21.1343 15.8667 21.5786 15.8667 22.0999 15.8667H27.7666C28.2857 15.8667 28.7322 15.8667 29.1266 15.7737C29.7372 15.6278 30.2954 15.3158 30.7395 14.8721C31.1836 14.4284 31.4962 13.8704 31.6426 13.26C31.7333 12.8656 31.7333 12.4213 31.7333 11.9V6.23333C31.7333 5.71426 31.7333 5.26773 31.6403 4.87333C31.4944 4.26277 31.1824 3.70452 30.7387 3.26044C30.295 2.81635 29.737 2.50377 29.1266 2.35733C28.7322 2.26666 28.2879 2.26666 27.7666 2.26666H22.2133ZM21.2681 4.56506C21.3655 4.5424 21.5174 4.53333 22.2133 4.53333H27.6533C28.3514 4.53333 28.501 4.54013 28.5985 4.56506C28.8021 4.61375 28.9882 4.71789 29.1363 4.86593C29.2843 5.01397 29.3884 5.20012 29.4371 5.40373C29.4598 5.49893 29.4666 5.64853 29.4666 6.34666V11.7867C29.4666 12.4848 29.4575 12.6344 29.4349 12.7319C29.3862 12.9355 29.282 13.1216 29.134 13.2697C28.986 13.4177 28.7998 13.5218 28.5962 13.5705C28.501 13.5932 28.3514 13.6 27.6533 13.6H22.2133C21.5151 13.6 21.3655 13.5932 21.2681 13.5683C21.0645 13.5196 20.8783 13.4154 20.7303 13.2674C20.5822 13.1194 20.4781 12.9332 20.4294 12.7296C20.409 12.6367 20.3999 12.4871 20.3999 11.7867V6.34666C20.3999 5.64853 20.4067 5.49893 20.4317 5.40146C20.4804 5.19785 20.5845 5.0117 20.7325 4.86366C20.8806 4.71563 21.0667 4.61149 21.2703 4.5628L21.2681 4.56506ZM6.23327 18.1333H11.8999C12.419 18.1333 12.8655 18.1333 13.2599 18.2263C13.8705 18.3722 14.4287 18.6842 14.8728 19.1279C15.3169 19.5716 15.6295 20.1296 15.7759 20.74C15.8666 21.1344 15.8666 21.5787 15.8666 22.1V27.7667C15.8666 28.2857 15.8666 28.7323 15.7737 29.1267C15.6278 29.7372 15.3157 30.2955 14.872 30.7396C14.4283 31.1836 13.8704 31.4962 13.2599 31.6427C12.8655 31.7333 12.4213 31.7333 11.8999 31.7333H6.23327C5.7142 31.7333 5.26767 31.7333 4.87327 31.6404C4.26271 31.4945 3.70446 31.1824 3.26038 30.7387C2.81629 30.2951 2.50371 29.7371 2.35727 29.1267C2.2666 28.7323 2.2666 28.288 2.2666 27.7667V22.1C2.2666 21.5809 2.2666 21.1344 2.35953 20.74C2.50543 20.1294 2.81751 19.5712 3.26119 19.1271C3.70487 18.683 4.26284 18.3704 4.87327 18.224C5.26767 18.1333 5.71193 18.1333 6.23327 18.1333ZM6.3466 20.4C5.64847 20.4 5.49887 20.4068 5.4014 20.4317C5.19779 20.4804 5.01164 20.5846 4.8636 20.7326C4.71557 20.8806 4.61143 21.0668 4.56273 21.2704C4.54233 21.3633 4.53327 21.5129 4.53327 22.2133V27.6533C4.53327 28.3515 4.54007 28.5011 4.565 28.5985C4.61369 28.8021 4.71783 28.9883 4.86587 29.1363C5.01391 29.2844 5.20005 29.3885 5.40367 29.4372C5.49887 29.4599 5.64847 29.4667 6.3466 29.4667H11.7866C12.4847 29.4667 12.6343 29.4576 12.7318 29.4349C12.9354 29.3862 13.1216 29.2821 13.2696 29.1341C13.4176 28.986 13.5218 28.7999 13.5705 28.5963C13.5931 28.5011 13.5999 28.3515 13.5999 27.6533V22.2133C13.5999 21.5152 13.5931 21.3656 13.5682 21.2681C13.5195 21.0645 13.4154 20.8784 13.2673 20.7303C13.1193 20.5823 12.9331 20.4782 12.7295 20.4295C12.6366 20.4091 12.487 20.4 11.7866 20.4H6.3466ZM22.2133 18.1333H22.0999C21.5809 18.1333 21.1343 18.1333 20.7399 18.2263C20.1294 18.3722 19.5711 18.6842 19.127 19.1279C18.683 19.5716 18.3704 20.1296 18.2239 20.74C18.1333 21.1344 18.1333 21.5787 18.1333 22.1V27.7667C18.1333 28.2857 18.1333 28.7323 18.2262 29.1267C18.3721 29.7372 18.6842 30.2955 19.1279 30.7396C19.5715 31.1836 20.1295 31.4962 20.7399 31.6427C21.1343 31.7356 21.5809 31.7356 22.0999 31.7356H27.7666C28.2857 31.7356 28.7322 31.7356 29.1266 31.6427C29.7367 31.4964 30.2945 31.1842 30.7382 30.7405C31.1818 30.2968 31.4941 29.7391 31.6403 29.1289C31.7333 28.7345 31.7333 28.288 31.7333 27.7689V22.1C31.7333 21.5809 31.7333 21.1344 31.6403 20.74C31.4944 20.1294 31.1824 19.5712 30.7387 19.1271C30.295 18.683 29.737 18.3704 29.1266 18.224C28.7322 18.1333 28.2879 18.1333 27.7666 18.1333H22.2133ZM21.2681 20.4317C21.3655 20.4091 21.5174 20.4 22.2133 20.4H27.6533C28.3514 20.4 28.501 20.4068 28.5985 20.4317C28.8021 20.4804 28.9882 20.5846 29.1363 20.7326C29.2843 20.8806 29.3884 21.0668 29.4371 21.2704C29.4598 21.3656 29.4666 21.5152 29.4666 22.2133V27.6533C29.4666 28.3515 29.4575 28.5011 29.4349 28.5985C29.3862 28.8021 29.282 28.9883 29.134 29.1363C28.986 29.2844 28.7998 29.3885 28.5962 29.4372C28.501 29.4599 28.3514 29.4667 27.6533 29.4667H22.2133C21.5151 29.4667 21.3655 29.4576 21.2681 29.4349C21.0645 29.3862 20.8783 29.2821 20.7303 29.1341C20.5822 28.986 20.4781 28.7999 20.4294 28.5963C20.409 28.5033 20.3999 28.3537 20.3999 27.6533V22.2133C20.3999 21.5152 20.4067 21.3656 20.4317 21.2681C20.4804 21.0645 20.5845 20.8784 20.7325 20.7303C20.8806 20.5823 21.0667 20.4782 21.2703 20.4295L21.2681 20.4317Z" fill="black"/>
</g>
</svg>
