<svg width="75" height="20" viewBox="0 0 75 20" fill="none" xmlns="http://www.w3.org/2000/svg">
<g id="Settings">
<path id="Vector" d="M71.3082 12.3871C71.3082 12.1837 71.2492 11.9999 71.131 11.8359C71.0129 11.6718 70.7931 11.5209 70.4715 11.383C70.1565 11.2387 69.7004 11.1074 69.1032 10.9893C68.5651 10.8712 68.0631 10.7235 67.5971 10.5463C67.1377 10.3626 66.7374 10.1427 66.3962 9.88679C66.0615 9.63086 65.799 9.32898 65.6087 8.98117C65.4184 8.62679 65.3232 8.2232 65.3232 7.77039C65.3232 7.32414 65.4184 6.90414 65.6087 6.51039C65.8056 6.11664 66.0845 5.76882 66.4454 5.46695C66.8129 5.15851 67.2591 4.91898 67.7841 4.74836C68.3157 4.57117 68.9129 4.48257 69.5757 4.48257C70.501 4.48257 71.2951 4.63023 71.9579 4.92554C72.6273 5.22086 73.1391 5.62773 73.4935 6.14617C73.8545 6.65804 74.0349 7.24211 74.0349 7.89836H71.1999C71.1999 7.62273 71.1409 7.37664 71.0227 7.16007C70.9112 6.93695 70.734 6.76304 70.4912 6.63836C70.2549 6.50711 69.9465 6.44148 69.5659 6.44148C69.2509 6.44148 68.9785 6.49726 68.7488 6.60882C68.5192 6.71382 68.342 6.8582 68.2173 7.04195C68.0992 7.21914 68.0401 7.41601 68.0401 7.63257C68.0401 7.79664 68.0729 7.94429 68.1385 8.07554C68.2107 8.20023 68.3256 8.31507 68.4831 8.42007C68.6406 8.52507 68.844 8.62351 69.0934 8.71539C69.3493 8.8007 69.6643 8.87945 70.0384 8.95164C70.8062 9.10914 71.492 9.31586 72.0957 9.57179C72.6995 9.82117 73.1785 10.1624 73.5329 10.5955C73.8873 11.0221 74.0645 11.5832 74.0645 12.2788C74.0645 12.7513 73.9595 13.1844 73.7495 13.5782C73.5395 13.9719 73.2376 14.3165 72.8438 14.6118C72.4501 14.9005 71.9776 15.1269 71.4263 15.291C70.8817 15.4485 70.2681 15.5273 69.5856 15.5273C68.5946 15.5273 67.7546 15.3501 67.0656 14.9957C66.3831 14.6413 65.8646 14.1918 65.5102 13.6471C65.1624 13.0959 64.9885 12.5315 64.9885 11.954H67.6759C67.689 12.3412 67.7874 12.6529 67.9712 12.8891C68.1615 13.1254 68.401 13.296 68.6898 13.401C68.9851 13.506 69.3034 13.5585 69.6446 13.5585C70.0121 13.5585 70.3173 13.5093 70.5601 13.4109C70.8029 13.3059 70.9866 13.168 71.1113 12.9974C71.2426 12.8202 71.3082 12.6168 71.3082 12.3871Z" fill="#282828"/>
<path id="Vector_2" d="M60.7754 4.67945H63.3446V14.976C63.3446 15.9473 63.128 16.7709 62.6949 17.4468C62.2683 18.1293 61.6712 18.6444 60.9034 18.9923C60.1355 19.3466 59.243 19.5238 58.2258 19.5238C57.7796 19.5238 57.3071 19.4648 56.8083 19.3466C56.3162 19.2285 55.8437 19.0448 55.3909 18.7954C54.9446 18.546 54.5705 18.231 54.2687 17.8504L55.5188 16.1769C55.8469 16.5576 56.2276 16.8529 56.6607 17.0629C57.0938 17.2794 57.5729 17.3877 58.0979 17.3877C58.6098 17.3877 59.0429 17.2926 59.3973 17.1023C59.7516 16.9185 60.024 16.6462 60.2143 16.2852C60.4046 15.9309 60.4998 15.501 60.4998 14.9957V7.14039L60.7754 4.67945ZM53.6091 10.1329V9.92617C53.6091 9.11242 53.7076 8.37414 53.9044 7.71132C54.1079 7.04195 54.3933 6.46773 54.7608 5.98867C55.1349 5.50961 55.5877 5.13882 56.1193 4.87632C56.6508 4.61382 57.2513 4.48257 57.9207 4.48257C58.6294 4.48257 59.2233 4.61382 59.7024 4.87632C60.1815 5.13882 60.5752 5.51289 60.8837 5.99851C61.1921 6.47757 61.4316 7.04523 61.6023 7.70148C61.7794 8.35117 61.9173 9.0632 62.0157 9.83757V10.2904C61.9173 11.0319 61.7696 11.721 61.5727 12.3576C61.3758 12.9941 61.1166 13.5519 60.7951 14.031C60.4735 14.5035 60.0732 14.871 59.5941 15.1335C59.1216 15.396 58.5573 15.5273 57.901 15.5273C57.2448 15.5273 56.6508 15.3927 56.1193 15.1237C55.5943 14.8546 55.1448 14.4773 54.7707 13.9916C54.3966 13.506 54.1079 12.9351 53.9044 12.2788C53.7076 11.6226 53.6091 10.9073 53.6091 10.1329ZM56.4441 9.92617V10.1329C56.4441 10.5726 56.4868 10.9827 56.5721 11.3634C56.6574 11.744 56.7887 12.0819 56.9659 12.3773C57.1496 12.666 57.376 12.8924 57.6451 13.0565C57.9207 13.214 58.2455 13.2927 58.6196 13.2927C59.138 13.2927 59.5613 13.1844 59.8894 12.9679C60.2176 12.7448 60.4637 12.4396 60.6277 12.0524C60.7918 11.6652 60.8869 11.219 60.9132 10.7137V9.42414C60.9001 9.0107 60.8443 8.63992 60.7458 8.31179C60.6474 7.97711 60.5096 7.69164 60.3324 7.45539C60.1552 7.21914 59.9255 7.03539 59.6433 6.90414C59.3612 6.77289 59.0265 6.70726 58.6393 6.70726C58.2652 6.70726 57.9404 6.79257 57.6648 6.9632C57.3957 7.12726 57.1693 7.35367 56.9855 7.64242C56.8084 7.93117 56.6738 8.27242 56.5819 8.66617C56.4901 9.05336 56.4441 9.47335 56.4441 9.92617Z" fill="#282828"/>
<path id="Vector_3" d="M45.5076 6.95336V15.3304H42.6726V4.67945H45.3304L45.5076 6.95336ZM45.0942 9.63086H44.3264C44.3264 8.84336 44.4281 8.13461 44.6315 7.50461C44.8349 6.86804 45.1204 6.32664 45.4879 5.88039C45.8554 5.42757 46.2918 5.08304 46.7971 4.84679C47.309 4.60398 47.8799 4.48257 48.5099 4.48257C49.0087 4.48257 49.4648 4.55476 49.8782 4.69914C50.2917 4.84351 50.646 5.0732 50.9414 5.3882C51.2432 5.7032 51.4729 6.11992 51.6304 6.63836C51.7945 7.15679 51.8765 7.79007 51.8765 8.5382V15.3304H49.0218V8.52836C49.0218 8.05586 48.9562 7.68836 48.825 7.42586C48.6937 7.16336 48.5001 6.97961 48.2442 6.87461C47.9948 6.76304 47.6864 6.70726 47.3189 6.70726C46.9382 6.70726 46.6068 6.78273 46.3246 6.93367C46.049 7.08461 45.8193 7.29461 45.6356 7.56367C45.4584 7.82617 45.3239 8.13461 45.232 8.48898C45.1401 8.84336 45.0942 9.22398 45.0942 9.63086Z" fill="#282828"/>
<path id="Vector_4" d="M40.389 4.67945V15.3304H37.5441V4.67945H40.389ZM37.3669 1.90351C37.3669 1.49007 37.5113 1.14882 37.8001 0.879759C38.0888 0.610697 38.476 0.476166 38.9616 0.476166C39.4407 0.476166 39.8246 0.610697 40.1133 0.879759C40.4087 1.14882 40.5563 1.49007 40.5563 1.90351C40.5563 2.31695 40.4087 2.6582 40.1133 2.92726C39.8246 3.19632 39.4407 3.33085 38.9616 3.33085C38.476 3.33085 38.0888 3.19632 37.8001 2.92726C37.5113 2.6582 37.3669 2.31695 37.3669 1.90351Z" fill="#282828"/>
<path id="Vector_5" d="M35.7821 4.67944V6.68757H29.5806V4.67944H35.7821ZM31.1162 2.05116H33.9512V12.1213C33.9512 12.4298 33.9906 12.666 34.0693 12.8301C34.1546 12.9941 34.2793 13.109 34.4434 13.1746C34.6074 13.2337 34.8142 13.2632 35.0635 13.2632C35.2407 13.2632 35.3982 13.2566 35.536 13.2435C35.6804 13.2238 35.8018 13.2041 35.9003 13.1844L35.9101 15.2713C35.6673 15.3501 35.4048 15.4124 35.1226 15.4583C34.8404 15.5043 34.5287 15.5273 34.1874 15.5273C33.564 15.5273 33.0193 15.4255 32.5534 15.2221C32.094 15.0121 31.7396 14.6774 31.4903 14.218C31.2409 13.7587 31.1162 13.1549 31.1162 12.4068V2.05116Z" fill="#282828"/>
<path id="Vector_6" d="M28.9506 4.67944V6.68757H22.749V4.67944H28.9506ZM24.2846 2.05116H27.1196V12.1213C27.1196 12.4298 27.159 12.666 27.2378 12.8301C27.3231 12.9941 27.4478 13.109 27.6118 13.1746C27.7759 13.2337 27.9826 13.2632 28.232 13.2632C28.4092 13.2632 28.5667 13.2566 28.7045 13.2435C28.8489 13.2238 28.9703 13.2041 29.0687 13.1844L29.0786 15.2713C28.8357 15.3501 28.5732 15.4124 28.2911 15.4583C28.0089 15.5043 27.6971 15.5273 27.3559 15.5273C26.7325 15.5273 26.1878 15.4255 25.7218 15.2221C25.2625 15.0121 24.9081 14.6774 24.6587 14.218C24.4093 13.7587 24.2846 13.1549 24.2846 12.4068V2.05116Z" fill="#282828"/>
<path id="Vector_7" d="M17.7482 15.5273C16.9213 15.5273 16.1797 15.396 15.5235 15.1335C14.8672 14.8644 14.3094 14.4937 13.85 14.0212C13.3972 13.5487 13.0494 13.0007 12.8066 12.3773C12.5638 11.7473 12.4424 11.0779 12.4424 10.3691V9.97539C12.4424 9.1682 12.5572 8.42992 12.7869 7.76054C13.0166 7.09117 13.3447 6.51039 13.7713 6.0182C14.2044 5.52601 14.7294 5.14867 15.3463 4.88617C15.9632 4.61711 16.6588 4.48257 17.4332 4.48257C18.1879 4.48257 18.8572 4.60726 19.4413 4.85664C20.0254 5.10601 20.5143 5.46039 20.908 5.91976C21.3083 6.37914 21.6102 6.93039 21.8136 7.57351C22.0171 8.21007 22.1188 8.91882 22.1188 9.69976V10.881H13.6532V8.99101H19.333V8.77445C19.333 8.3807 19.2608 8.02961 19.1164 7.72117C18.9786 7.40617 18.7686 7.15679 18.4864 6.97304C18.2043 6.78929 17.8433 6.69742 17.4036 6.69742C17.0296 6.69742 16.708 6.77945 16.4389 6.94351C16.1699 7.10757 15.95 7.33726 15.7794 7.63257C15.6154 7.92789 15.4907 8.2757 15.4054 8.67601C15.3266 9.06976 15.2872 9.50289 15.2872 9.97539V10.3691C15.2872 10.7957 15.3463 11.1894 15.4644 11.5504C15.5891 11.9113 15.763 12.223 15.9861 12.4855C16.2158 12.748 16.4914 12.9515 16.813 13.0959C17.1411 13.2402 17.5119 13.3124 17.9254 13.3124C18.4372 13.3124 18.913 13.214 19.3527 13.0171C19.7989 12.8137 20.1829 12.5085 20.5044 12.1016L21.8825 13.5979C21.6594 13.9194 21.3543 14.2279 20.9671 14.5232C20.5864 14.8185 20.1271 15.0613 19.5889 15.2516C19.0508 15.4354 18.4372 15.5273 17.7482 15.5273Z" fill="#282828"/>
<path id="Vector_8" d="M8.06203 11.5799C8.06203 11.324 8.02266 11.0943 7.94391 10.8909C7.87172 10.6809 7.7339 10.4905 7.53047 10.3199C7.32703 10.1427 7.04156 9.96882 6.67406 9.7982C6.30656 9.62757 5.83078 9.45038 5.24672 9.26663C4.59703 9.05663 3.98016 8.82038 3.39609 8.55788C2.81859 8.29538 2.30672 7.99023 1.86047 7.64242C1.42078 7.28804 1.07297 6.87788 0.817031 6.41195C0.567656 5.94601 0.442969 5.4046 0.442969 4.78773C0.442969 4.19054 0.574219 3.64913 0.836719 3.16351C1.09922 2.67132 1.46672 2.25132 1.93922 1.90351C2.41172 1.54914 2.96953 1.27679 3.61266 1.08648C4.26234 0.896167 4.97437 0.80101 5.74875 0.80101C6.80531 0.80101 7.72734 0.991323 8.51484 1.37195C9.30234 1.75257 9.91266 2.27429 10.3458 2.9371C10.7855 3.59992 11.0053 4.35788 11.0053 5.21101H8.07187C8.07187 4.79101 7.98328 4.42351 7.80609 4.10851C7.63547 3.78695 7.37297 3.53429 7.01859 3.35054C6.67078 3.16679 6.23109 3.07492 5.69953 3.07492C5.18766 3.07492 4.76109 3.15367 4.41984 3.31117C4.07859 3.4621 3.82266 3.66882 3.65203 3.93132C3.48141 4.18726 3.39609 4.47601 3.39609 4.79757C3.39609 5.04039 3.45516 5.26023 3.57328 5.4571C3.69797 5.65398 3.88172 5.83773 4.12453 6.00835C4.36734 6.17898 4.66594 6.33976 5.02031 6.4907C5.37469 6.64163 5.78484 6.78929 6.25078 6.93367C7.03172 7.16992 7.7175 7.4357 8.30812 7.73101C8.90531 8.02632 9.40406 8.35773 9.80437 8.72523C10.2047 9.09273 10.5066 9.50945 10.71 9.97538C10.9134 10.4413 11.0152 10.9696 11.0152 11.5602C11.0152 12.1837 10.8937 12.7415 10.6509 13.2337C10.4081 13.7259 10.057 14.1426 9.59766 14.4838C9.13828 14.8251 8.59031 15.0843 7.95375 15.2615C7.31719 15.4387 6.60516 15.5273 5.81766 15.5273C5.10891 15.5273 4.41 15.4354 3.72094 15.2516C3.03187 15.0613 2.40516 14.7759 1.84078 14.3952C1.28297 14.0146 0.836719 13.529 0.502031 12.9384C0.167344 12.3477 0 11.6488 0 10.8416H2.96297C2.96297 11.2879 3.03187 11.6652 3.16969 11.9737C3.3075 12.2821 3.50109 12.5315 3.75047 12.7218C4.00641 12.9121 4.30828 13.0499 4.65609 13.1352C5.01047 13.2205 5.39766 13.2632 5.81766 13.2632C6.32953 13.2632 6.74953 13.191 7.07766 13.0466C7.41234 12.9023 7.65844 12.7021 7.81594 12.4462C7.98 12.1902 8.06203 11.9015 8.06203 11.5799Z" fill="#282828"/>
</g>
</svg>
