<svg width="228" height="23" viewBox="0 0 228 23" fill="none" xmlns="http://www.w3.org/2000/svg">
<g id="Stock Dashboard">
<path id="Vector" d="M222.905 18.9697V0.0146484H227.505V22.5146H223.374L222.905 18.9697ZM213.032 14.7803V14.4727C213.032 13.2715 213.164 12.1777 213.428 11.1914C213.701 10.1953 214.097 9.34082 214.614 8.62793C215.142 7.90527 215.791 7.34863 216.562 6.95801C217.334 6.56738 218.218 6.37207 219.214 6.37207C220.132 6.37207 220.933 6.57715 221.616 6.9873C222.3 7.3877 222.881 7.9541 223.359 8.68652C223.848 9.40918 224.243 10.2637 224.546 11.25C224.849 12.2266 225.078 13.2861 225.234 14.4287V14.9561C225.088 16.0498 224.858 17.0703 224.546 18.0176C224.243 18.9648 223.848 19.7998 223.359 20.5225C222.881 21.2354 222.295 21.7969 221.602 22.207C220.918 22.6074 220.112 22.8076 219.185 22.8076C218.188 22.8076 217.305 22.6074 216.533 22.207C215.771 21.8066 215.132 21.2451 214.614 20.5225C214.097 19.7998 213.701 18.9502 213.428 17.9736C213.164 16.9971 213.032 15.9326 213.032 14.7803ZM217.603 14.4727V14.7803C217.603 15.4053 217.646 15.9863 217.734 16.5234C217.832 17.0605 217.988 17.5342 218.203 17.9443C218.418 18.3545 218.701 18.6768 219.053 18.9111C219.404 19.1357 219.834 19.248 220.342 19.248C221.025 19.248 221.587 19.0918 222.026 18.7793C222.466 18.457 222.798 18.0127 223.022 17.4463C223.247 16.8799 223.364 16.2207 223.374 15.4688V13.9307C223.374 13.3057 223.311 12.7441 223.184 12.2461C223.057 11.748 222.866 11.3281 222.612 10.9863C222.368 10.6445 222.061 10.3857 221.689 10.21C221.318 10.0244 220.879 9.93164 220.371 9.93164C219.873 9.93164 219.448 10.0488 219.097 10.2832C218.745 10.5078 218.457 10.8252 218.232 11.2354C218.018 11.6455 217.856 12.1289 217.749 12.6855C217.651 13.2324 217.603 13.8281 217.603 14.4727Z" fill="#18A0FB"/>
<path id="Vector_2" d="M207.363 10.3564V22.5146H202.793V6.66504H207.085L207.363 10.3564ZM212.095 6.54785L212.021 10.8105C211.826 10.7812 211.572 10.7568 211.26 10.7373C210.947 10.708 210.679 10.6934 210.454 10.6934C209.868 10.6934 209.36 10.7666 208.931 10.9131C208.511 11.0498 208.159 11.2549 207.876 11.5283C207.603 11.8018 207.397 12.1436 207.261 12.5537C207.124 12.9541 207.056 13.418 207.056 13.9453L206.191 13.5205C206.191 12.4756 206.294 11.5186 206.499 10.6494C206.704 9.78027 207.002 9.02832 207.393 8.39355C207.783 7.74902 208.262 7.25098 208.828 6.89941C209.395 6.54785 210.039 6.37207 210.762 6.37207C210.996 6.37207 211.235 6.38672 211.479 6.41602C211.724 6.44531 211.929 6.48926 212.095 6.54785Z" fill="#18A0FB"/>
<path id="Vector_3" d="M195.176 18.7354V11.9385C195.176 11.46 195.103 11.0498 194.956 10.708C194.81 10.3662 194.58 10.0977 194.268 9.90234C193.955 9.70703 193.55 9.60938 193.052 9.60938C192.632 9.60938 192.266 9.68262 191.953 9.8291C191.65 9.97559 191.416 10.1855 191.25 10.459C191.094 10.7324 191.016 11.0693 191.016 11.4697H186.445C186.445 10.7568 186.606 10.0928 186.929 9.47754C187.251 8.8623 187.71 8.32031 188.306 7.85156C188.911 7.38281 189.634 7.02148 190.474 6.76758C191.313 6.50391 192.256 6.37207 193.301 6.37207C194.541 6.37207 195.645 6.58203 196.611 7.00195C197.588 7.41211 198.359 8.03223 198.926 8.8623C199.492 9.68262 199.775 10.7178 199.775 11.9678V18.6035C199.775 19.5605 199.829 20.3125 199.937 20.8594C200.054 21.3965 200.22 21.8652 200.435 22.2656V22.5146H195.82C195.605 22.0557 195.444 21.4893 195.337 20.8154C195.229 20.1318 195.176 19.4385 195.176 18.7354ZM195.747 12.8467L195.776 15.3662H193.506C192.998 15.3662 192.559 15.4297 192.188 15.5566C191.826 15.6836 191.533 15.8594 191.309 16.084C191.084 16.2988 190.918 16.5527 190.811 16.8457C190.713 17.1289 190.664 17.4414 190.664 17.7832C190.664 18.1055 190.742 18.3984 190.898 18.6621C191.055 18.916 191.27 19.1162 191.543 19.2627C191.816 19.4092 192.134 19.4824 192.495 19.4824C193.091 19.4824 193.599 19.3652 194.019 19.1309C194.448 18.8965 194.78 18.6133 195.015 18.2812C195.249 17.9395 195.366 17.6221 195.366 17.3291L196.465 19.2334C196.289 19.624 196.074 20.0293 195.82 20.4492C195.566 20.8594 195.244 21.2451 194.854 21.6064C194.463 21.958 193.989 22.2461 193.433 22.4707C192.886 22.6953 192.227 22.8076 191.455 22.8076C190.459 22.8076 189.556 22.6074 188.745 22.207C187.935 21.7969 187.285 21.2354 186.797 20.5225C186.318 19.8096 186.079 18.9893 186.079 18.0615C186.079 17.2314 186.23 16.4941 186.533 15.8496C186.836 15.2051 187.29 14.6582 187.896 14.209C188.511 13.7598 189.282 13.4229 190.21 13.1982C191.138 12.9639 192.222 12.8467 193.462 12.8467H195.747Z" fill="#18A0FB"/>
<path id="Vector_4" d="M169.219 14.751V14.4434C169.219 13.2812 169.385 12.2119 169.717 11.2354C170.049 10.249 170.537 9.39453 171.182 8.67188C171.826 7.94922 172.617 7.3877 173.555 6.9873C174.492 6.57715 175.566 6.37207 176.777 6.37207C178.008 6.37207 179.092 6.57715 180.029 6.9873C180.977 7.3877 181.772 7.94922 182.417 8.67188C183.062 9.39453 183.55 10.249 183.882 11.2354C184.214 12.2119 184.38 13.2812 184.38 14.4434V14.751C184.38 15.9033 184.214 16.9727 183.882 17.959C183.55 18.9355 183.062 19.79 182.417 20.5225C181.772 21.2451 180.981 21.8066 180.044 22.207C179.106 22.6074 178.027 22.8076 176.807 22.8076C175.596 22.8076 174.517 22.6074 173.569 22.207C172.622 21.8066 171.826 21.2451 171.182 20.5225C170.537 19.79 170.049 18.9355 169.717 17.959C169.385 16.9727 169.219 15.9033 169.219 14.751ZM173.804 14.4434V14.751C173.804 15.376 173.853 15.9619 173.95 16.5088C174.058 17.0557 174.229 17.5342 174.463 17.9443C174.697 18.3545 175.005 18.6768 175.386 18.9111C175.776 19.1357 176.25 19.248 176.807 19.248C177.363 19.248 177.832 19.1357 178.213 18.9111C178.594 18.6768 178.901 18.3545 179.136 17.9443C179.37 17.5342 179.536 17.0557 179.634 16.5088C179.741 15.9619 179.795 15.376 179.795 14.751V14.4434C179.795 13.8281 179.741 13.252 179.634 12.7148C179.536 12.168 179.37 11.6846 179.136 11.2646C178.901 10.8447 178.589 10.5176 178.198 10.2832C177.817 10.0488 177.344 9.93164 176.777 9.93164C176.23 9.93164 175.767 10.0488 175.386 10.2832C175.005 10.5176 174.697 10.8447 174.463 11.2646C174.229 11.6846 174.058 12.168 173.95 12.7148C173.853 13.252 173.804 13.8281 173.804 14.4434Z" fill="#18A0FB"/>
<path id="Vector_5" d="M152.988 0.0146484H157.559V18.75L157.09 22.5146H152.988V0.0146484ZM167.446 14.4141V14.7217C167.446 15.9229 167.319 17.0166 167.065 18.0029C166.821 18.9893 166.445 19.8438 165.938 20.5664C165.43 21.2793 164.79 21.8311 164.019 22.2217C163.247 22.6123 162.339 22.8076 161.294 22.8076C160.327 22.8076 159.497 22.6074 158.804 22.207C158.11 21.7969 157.529 21.2305 157.061 20.5078C156.592 19.7852 156.211 18.9404 155.918 17.9736C155.635 17.0068 155.415 15.9668 155.259 14.8535V14.3262C155.415 13.2129 155.635 12.1729 155.918 11.2061C156.211 10.2393 156.592 9.39453 157.061 8.67188C157.529 7.94922 158.105 7.3877 158.789 6.9873C159.482 6.57715 160.308 6.37207 161.265 6.37207C162.319 6.37207 163.232 6.57227 164.004 6.97266C164.785 7.37305 165.43 7.93457 165.938 8.65723C166.445 9.37012 166.821 10.2197 167.065 11.2061C167.319 12.1826 167.446 13.252 167.446 14.4141ZM162.876 14.7217V14.4141C162.876 13.8086 162.832 13.2373 162.744 12.7002C162.666 12.1631 162.524 11.6895 162.319 11.2793C162.124 10.8594 161.846 10.5322 161.484 10.2979C161.133 10.0537 160.679 9.93164 160.122 9.93164C159.575 9.93164 159.111 10.0244 158.73 10.21C158.35 10.3955 158.042 10.6592 157.808 11.001C157.573 11.333 157.402 11.7383 157.295 12.2168C157.188 12.6953 157.129 13.2275 157.119 13.8135V15.3662C157.129 16.1475 157.231 16.8311 157.427 17.417C157.622 18.0029 157.939 18.457 158.379 18.7793C158.818 19.0918 159.409 19.248 160.151 19.248C160.718 19.248 161.177 19.1406 161.528 18.9258C161.89 18.7012 162.163 18.3887 162.349 17.9883C162.544 17.5879 162.681 17.1094 162.759 16.5527C162.837 15.9961 162.876 15.3857 162.876 14.7217Z" fill="#18A0FB"/>
<path id="Vector_6" d="M140.566 0.0146484V22.5146H135.996V0.0146484H140.566ZM139.966 14.0332L138.823 14.0625C138.823 12.9492 138.96 11.9287 139.233 11.001C139.517 10.0635 139.917 9.24805 140.435 8.55469C140.952 7.86133 141.572 7.32422 142.295 6.94336C143.027 6.5625 143.833 6.37207 144.712 6.37207C145.493 6.37207 146.206 6.48438 146.851 6.70898C147.495 6.93359 148.052 7.29004 148.521 7.77832C148.989 8.2666 149.351 8.90625 149.604 9.69727C149.858 10.4883 149.985 11.4502 149.985 12.583V22.5146H145.386V12.5537C145.386 11.8799 145.288 11.3525 145.093 10.9717C144.907 10.5908 144.634 10.3223 144.272 10.166C143.921 10.0098 143.491 9.93164 142.983 9.93164C142.388 9.93164 141.895 10.0391 141.504 10.2539C141.113 10.459 140.806 10.7471 140.581 11.1182C140.356 11.4893 140.195 11.9238 140.098 12.4219C140.01 12.9199 139.966 13.457 139.966 14.0332Z" fill="#18A0FB"/>
<path id="Vector_7" d="M129.126 18.1055C129.126 17.8125 129.033 17.5537 128.848 17.3291C128.672 17.1045 128.35 16.8994 127.881 16.7139C127.422 16.5283 126.772 16.3428 125.933 16.1572C125.142 15.9912 124.404 15.7764 123.721 15.5127C123.037 15.2393 122.441 14.9121 121.934 14.5312C121.426 14.1406 121.03 13.6816 120.747 13.1543C120.464 12.6172 120.322 12.0068 120.322 11.3232C120.322 10.6592 120.464 10.0293 120.747 9.43359C121.04 8.83789 121.46 8.31055 122.007 7.85156C122.563 7.39258 123.237 7.03125 124.028 6.76758C124.829 6.50391 125.737 6.37207 126.753 6.37207C128.149 6.37207 129.355 6.5918 130.371 7.03125C131.387 7.46094 132.168 8.06641 132.715 8.84766C133.262 9.61914 133.535 10.5029 133.535 11.499H128.965C128.965 11.0889 128.887 10.7324 128.73 10.4297C128.574 10.127 128.335 9.89258 128.013 9.72656C127.69 9.55078 127.266 9.46289 126.738 9.46289C126.328 9.46289 125.967 9.53613 125.654 9.68262C125.352 9.81934 125.112 10.0098 124.937 10.2539C124.771 10.498 124.688 10.7812 124.688 11.1035C124.688 11.3281 124.736 11.5332 124.834 11.7188C124.941 11.8945 125.103 12.0605 125.317 12.2168C125.542 12.3633 125.83 12.4951 126.182 12.6123C126.543 12.7295 126.982 12.8418 127.5 12.9492C128.604 13.1543 129.609 13.4424 130.518 13.8135C131.436 14.1846 132.168 14.6973 132.715 15.3516C133.271 16.0059 133.55 16.8701 133.55 17.9443C133.55 18.6475 133.389 19.292 133.066 19.8779C132.754 20.4639 132.3 20.9766 131.704 21.416C131.108 21.8555 130.396 22.1973 129.565 22.4414C128.735 22.6855 127.798 22.8076 126.753 22.8076C125.259 22.8076 123.994 22.5391 122.959 22.002C121.924 21.4648 121.143 20.791 120.615 19.9805C120.098 19.1602 119.839 18.3203 119.839 17.4609H124.131C124.15 17.9883 124.282 18.418 124.526 18.75C124.78 19.082 125.107 19.3262 125.508 19.4824C125.908 19.6289 126.357 19.7021 126.855 19.7021C127.354 19.7021 127.769 19.6338 128.101 19.4971C128.433 19.3604 128.687 19.1748 128.862 18.9404C129.038 18.6963 129.126 18.418 129.126 18.1055Z" fill="#18A0FB"/>
<path id="Vector_8" d="M113.086 18.7354V11.9385C113.086 11.46 113.013 11.0498 112.866 10.708C112.72 10.3662 112.49 10.0977 112.178 9.90234C111.865 9.70703 111.46 9.60938 110.962 9.60938C110.542 9.60938 110.176 9.68262 109.863 9.8291C109.561 9.97559 109.326 10.1855 109.16 10.459C109.004 10.7324 108.926 11.0693 108.926 11.4697H104.355C104.355 10.7568 104.517 10.0928 104.839 9.47754C105.161 8.8623 105.62 8.32031 106.216 7.85156C106.821 7.38281 107.544 7.02148 108.384 6.76758C109.224 6.50391 110.166 6.37207 111.211 6.37207C112.451 6.37207 113.555 6.58203 114.521 7.00195C115.498 7.41211 116.27 8.03223 116.836 8.8623C117.402 9.68262 117.686 10.7178 117.686 11.9678V18.6035C117.686 19.5605 117.739 20.3125 117.847 20.8594C117.964 21.3965 118.13 21.8652 118.345 22.2656V22.5146H113.73C113.516 22.0557 113.354 21.4893 113.247 20.8154C113.14 20.1318 113.086 19.4385 113.086 18.7354ZM113.657 12.8467L113.687 15.3662H111.416C110.908 15.3662 110.469 15.4297 110.098 15.5566C109.736 15.6836 109.443 15.8594 109.219 16.084C108.994 16.2988 108.828 16.5527 108.721 16.8457C108.623 17.1289 108.574 17.4414 108.574 17.7832C108.574 18.1055 108.652 18.3984 108.809 18.6621C108.965 18.916 109.18 19.1162 109.453 19.2627C109.727 19.4092 110.044 19.4824 110.405 19.4824C111.001 19.4824 111.509 19.3652 111.929 19.1309C112.358 18.8965 112.69 18.6133 112.925 18.2812C113.159 17.9395 113.276 17.6221 113.276 17.3291L114.375 19.2334C114.199 19.624 113.984 20.0293 113.73 20.4492C113.477 20.8594 113.154 21.2451 112.764 21.6064C112.373 21.958 111.899 22.2461 111.343 22.4707C110.796 22.6953 110.137 22.8076 109.365 22.8076C108.369 22.8076 107.466 22.6074 106.655 22.207C105.845 21.7969 105.195 21.2354 104.707 20.5225C104.229 19.8096 103.989 18.9893 103.989 18.0615C103.989 17.2314 104.141 16.4941 104.443 15.8496C104.746 15.2051 105.2 14.6582 105.806 14.209C106.421 13.7598 107.192 13.4229 108.12 13.1982C109.048 12.9639 110.132 12.8467 111.372 12.8467H113.657Z" fill="#18A0FB"/>
<path id="Vector_9" d="M92.2266 22.5146H87.5391L87.5684 18.8232H92.2266C93.291 18.8232 94.1895 18.5791 94.9219 18.0908C95.6543 17.5928 96.2109 16.8604 96.5918 15.8936C96.9727 14.917 97.1631 13.7305 97.1631 12.334V11.3525C97.1631 10.2979 97.0557 9.37012 96.8408 8.56934C96.626 7.75879 96.3086 7.08008 95.8887 6.5332C95.4688 5.98633 94.9463 5.57617 94.3213 5.30273C93.7061 5.0293 92.998 4.89258 92.1973 4.89258H87.4512V1.18652H92.1973C93.6426 1.18652 94.9609 1.43066 96.1523 1.91895C97.3535 2.40723 98.3887 3.10547 99.2578 4.01367C100.137 4.92188 100.815 5.99609 101.294 7.23633C101.772 8.47656 102.012 9.8584 102.012 11.3818V12.334C102.012 13.8477 101.772 15.2295 101.294 16.4795C100.815 17.7197 100.137 18.7939 99.2578 19.7021C98.3887 20.6006 97.3584 21.2939 96.167 21.7822C94.9756 22.2705 93.6621 22.5146 92.2266 22.5146ZM90.249 1.18652V22.5146H85.4736V1.18652H90.249Z" fill="#18A0FB"/>
<path id="Vector_10" d="M66.1377 0V22.5146H61.5527V0H66.1377ZM76.2012 6.66504L69.3018 14.6338L65.6543 18.2959L63.8232 15.2051L66.7822 11.3818L70.6934 6.66504H76.2012ZM71.3672 22.5146L66.8994 15.2344L70.1807 12.6709L76.6113 22.5146H71.3672Z" fill="#18A0FB"/>
<path id="Vector_11" d="M52.5439 19.248C53.0322 19.248 53.457 19.1553 53.8184 18.9697C54.1797 18.7842 54.458 18.5254 54.6533 18.1934C54.8584 17.8516 54.9609 17.4414 54.9609 16.9629H59.2676C59.2676 18.1152 58.9697 19.1309 58.374 20.0098C57.7881 20.8887 56.9971 21.5771 56.001 22.0752C55.0049 22.5635 53.8818 22.8076 52.6318 22.8076C51.4014 22.8076 50.3271 22.6074 49.4092 22.207C48.4912 21.7969 47.7246 21.2256 47.1094 20.4932C46.4941 19.7607 46.0303 18.9111 45.7178 17.9443C45.415 16.9678 45.2637 15.9131 45.2637 14.7803V14.3994C45.2637 13.2764 45.415 12.2266 45.7178 11.25C46.0303 10.2734 46.4941 9.41895 47.1094 8.68652C47.7246 7.9541 48.4863 7.3877 49.3945 6.9873C50.3125 6.57715 51.3867 6.37207 52.6172 6.37207C53.916 6.37207 55.0635 6.62109 56.0596 7.11914C57.0654 7.61719 57.8516 8.33496 58.418 9.27246C58.9844 10.2002 59.2676 11.3184 59.2676 12.627H54.9609C54.9609 12.1191 54.8682 11.665 54.6826 11.2646C54.5068 10.8545 54.2334 10.5322 53.8623 10.2979C53.501 10.0537 53.0518 9.93164 52.5146 9.93164C51.958 9.93164 51.499 10.0537 51.1377 10.2979C50.7861 10.5322 50.5176 10.8594 50.332 11.2793C50.1465 11.6992 50.0195 12.1777 49.9512 12.7148C49.8828 13.2422 49.8486 13.8037 49.8486 14.3994V14.7803C49.8486 15.3857 49.8828 15.9619 49.9512 16.5088C50.0195 17.0459 50.1465 17.5195 50.332 17.9297C50.5273 18.3398 50.8008 18.6621 51.1523 18.8965C51.5039 19.1309 51.9678 19.248 52.5439 19.248Z" fill="#18A0FB"/>
<path id="Vector_12" d="M28.3594 14.751V14.4434C28.3594 13.2812 28.5254 12.2119 28.8574 11.2354C29.1895 10.249 29.6777 9.39453 30.3223 8.67188C30.9668 7.94922 31.7578 7.3877 32.6953 6.9873C33.6328 6.57715 34.707 6.37207 35.918 6.37207C37.1484 6.37207 38.2324 6.57715 39.1699 6.9873C40.1172 7.3877 40.9131 7.94922 41.5576 8.67188C42.2021 9.39453 42.6904 10.249 43.0225 11.2354C43.3545 12.2119 43.5205 13.2812 43.5205 14.4434V14.751C43.5205 15.9033 43.3545 16.9727 43.0225 17.959C42.6904 18.9355 42.2021 19.79 41.5576 20.5225C40.9131 21.2451 40.1221 21.8066 39.1846 22.207C38.2471 22.6074 37.168 22.8076 35.9473 22.8076C34.7363 22.8076 33.6572 22.6074 32.71 22.207C31.7627 21.8066 30.9668 21.2451 30.3223 20.5225C29.6777 19.79 29.1895 18.9355 28.8574 17.959C28.5254 16.9727 28.3594 15.9033 28.3594 14.751ZM32.9443 14.4434V14.751C32.9443 15.376 32.9932 15.9619 33.0908 16.5088C33.1982 17.0557 33.3691 17.5342 33.6035 17.9443C33.8379 18.3545 34.1455 18.6768 34.5264 18.9111C34.917 19.1357 35.3906 19.248 35.9473 19.248C36.5039 19.248 36.9727 19.1357 37.3535 18.9111C37.7344 18.6768 38.042 18.3545 38.2764 17.9443C38.5107 17.5342 38.6768 17.0557 38.7744 16.5088C38.8818 15.9619 38.9355 15.376 38.9355 14.751V14.4434C38.9355 13.8281 38.8818 13.252 38.7744 12.7148C38.6768 12.168 38.5107 11.6846 38.2764 11.2646C38.042 10.8447 37.7295 10.5176 37.3389 10.2832C36.958 10.0488 36.4844 9.93164 35.918 9.93164C35.3711 9.93164 34.9072 10.0488 34.5264 10.2832C34.1455 10.5176 33.8379 10.8447 33.6035 11.2646C33.3691 11.6846 33.1982 12.168 33.0908 12.7148C32.9932 13.252 32.9443 13.8281 32.9443 14.4434Z" fill="#18A0FB"/>
<path id="Vector_13" d="M27.2314 6.66504V9.87305H17.8271V6.66504H27.2314ZM19.9805 2.73926H24.5654V17.5488C24.5654 17.9883 24.6191 18.3252 24.7266 18.5596C24.834 18.7939 25.0098 18.96 25.2539 19.0576C25.498 19.1455 25.8105 19.1895 26.1914 19.1895C26.4648 19.1895 26.6992 19.1797 26.8945 19.1602C27.0898 19.1406 27.2705 19.1162 27.4365 19.0869V22.3975C27.0459 22.5244 26.6309 22.6221 26.1914 22.6904C25.752 22.7686 25.2734 22.8076 24.7559 22.8076C23.7695 22.8076 22.915 22.6465 22.1924 22.3242C21.4795 22.002 20.9326 21.4941 20.5518 20.8008C20.1709 20.0977 19.9805 19.1846 19.9805 18.0615V2.73926Z" fill="#18A0FB"/>
<path id="Vector_14" d="M11.8359 16.8896C11.8359 16.5283 11.7822 16.2061 11.6748 15.9229C11.5674 15.6299 11.3721 15.3613 11.0889 15.1172C10.8057 14.873 10.4053 14.6289 9.8877 14.3848C9.37012 14.1309 8.69141 13.8721 7.85156 13.6084C6.89453 13.2959 5.98145 12.9443 5.1123 12.5537C4.25293 12.1533 3.48633 11.6895 2.8125 11.1621C2.13867 10.6348 1.60645 10.0195 1.21582 9.31641C0.834961 8.61328 0.644531 7.79297 0.644531 6.85547C0.644531 5.94727 0.844727 5.12695 1.24512 4.39453C1.64551 3.66211 2.20703 3.03711 2.92969 2.51953C3.65234 1.99219 4.50195 1.5918 5.47852 1.31836C6.45508 1.03516 7.5293 0.893555 8.70117 0.893555C10.2637 0.893555 11.6357 1.17188 12.8174 1.72852C14.0088 2.27539 14.9365 3.04688 15.6006 4.04297C16.2646 5.0293 16.5967 6.17676 16.5967 7.48535H11.8506C11.8506 6.90918 11.7285 6.40137 11.4844 5.96191C11.25 5.5127 10.8887 5.16113 10.4004 4.90723C9.92188 4.65332 9.32129 4.52637 8.59863 4.52637C7.89551 4.52637 7.30469 4.63379 6.82617 4.84863C6.35742 5.05371 6.00098 5.33691 5.75684 5.69824C5.52246 6.05957 5.40527 6.45508 5.40527 6.88477C5.40527 7.22656 5.49316 7.53906 5.66895 7.82227C5.85449 8.0957 6.11816 8.35449 6.45996 8.59863C6.81152 8.83301 7.24121 9.05762 7.74902 9.27246C8.25684 9.4873 8.83789 9.69238 9.49219 9.8877C10.6348 10.249 11.6455 10.6494 12.5244 11.0889C13.4131 11.5283 14.1602 12.0264 14.7656 12.583C15.3711 13.1396 15.8252 13.7695 16.1279 14.4727C16.4404 15.1758 16.5967 15.9717 16.5967 16.8604C16.5967 17.8076 16.4111 18.6475 16.04 19.3799C15.6787 20.1123 15.1514 20.7373 14.458 21.2549C13.7744 21.7627 12.9541 22.1484 11.9971 22.4121C11.04 22.6758 9.9707 22.8076 8.78906 22.8076C7.71484 22.8076 6.65527 22.6709 5.61035 22.3975C4.56543 22.1143 3.61816 21.6846 2.76855 21.1084C1.92871 20.5322 1.25488 19.7998 0.74707 18.9111C0.249023 18.0127 0 16.9482 0 15.7178H4.77539C4.77539 16.3623 4.86816 16.9092 5.05371 17.3584C5.23926 17.7979 5.50293 18.1543 5.84473 18.4277C6.19629 18.7012 6.62109 18.8965 7.11914 19.0137C7.61719 19.1309 8.17383 19.1895 8.78906 19.1895C9.50195 19.1895 10.0781 19.0918 10.5176 18.8965C10.9668 18.6914 11.2988 18.4131 11.5137 18.0615C11.7285 17.71 11.8359 17.3193 11.8359 16.8896Z" fill="#18A0FB"/>
</g>
</svg>
